M48
;GenerationSoftware,Autodesk,EAGLE,9.0.1*%
;CreationDate,2018-07-02T22:03:49Z*%
FMAT,2
ICI,OFF
METRIC,TZ,000.000
T5C0.500
T4C0.650
T3C1.016
T2C1.020
T1C3.000
%
G90
M71
T1
X4650Y19650
X4650Y14950
T2
X8970Y21800
X8970Y18800
X8970Y15800
X8970Y12800
T3
X22755Y10370
X25295Y10370
X27835Y10370
X30375Y10370
X32915Y10370
T4
X19890Y21370
X19890Y18830
X19890Y16290
X19890Y13750
X12270Y13750
X12270Y16290
X12270Y18830
X12270Y21370
T5
X24892Y23114
X34798Y7874
M30