G04 EAGLE Gerber X2 export*
G75*
%MOMM*%
%FSLAX34Y34*%
%LPD*%
%AMOC8*
5,1,8,0,0,1.08239X$1,22.5*%
G01*
%ADD10C,0.101600*%
%ADD11C,0.076200*%
%ADD12C,0.127000*%


D10*
X89408Y259644D02*
X98213Y259644D01*
X93811Y255242D02*
X93811Y264047D01*
X82973Y259644D02*
X74168Y259644D01*
X78571Y255242D02*
X78571Y264047D01*
X67733Y259644D02*
X58928Y259644D01*
X63331Y255242D02*
X63331Y264047D01*
X52493Y259644D02*
X43688Y259644D01*
X48091Y255242D02*
X48091Y264047D01*
X37253Y259644D02*
X28448Y259644D01*
X32851Y255242D02*
X32851Y264047D01*
X22013Y259644D02*
X13208Y259644D01*
X17611Y255242D02*
X17611Y264047D01*
X90876Y88053D02*
X90876Y79248D01*
X78176Y79248D02*
X78176Y88053D01*
X65476Y88053D02*
X65476Y79248D01*
X52776Y79248D02*
X52776Y88053D01*
X40076Y88053D02*
X40076Y79248D01*
X27376Y79248D02*
X27376Y88053D01*
X14676Y88053D02*
X14676Y79248D01*
D11*
X109742Y151793D02*
X109820Y151791D01*
X109898Y151786D01*
X109975Y151776D01*
X110052Y151763D01*
X110128Y151747D01*
X110203Y151727D01*
X110277Y151703D01*
X110350Y151676D01*
X110422Y151645D01*
X110492Y151611D01*
X110561Y151574D01*
X110627Y151533D01*
X110692Y151489D01*
X110754Y151443D01*
X110814Y151393D01*
X110872Y151341D01*
X110927Y151286D01*
X110979Y151228D01*
X111029Y151168D01*
X111075Y151106D01*
X111119Y151041D01*
X111160Y150975D01*
X111197Y150906D01*
X111231Y150836D01*
X111262Y150764D01*
X111289Y150691D01*
X111313Y150617D01*
X111333Y150542D01*
X111349Y150466D01*
X111362Y150389D01*
X111372Y150312D01*
X111377Y150234D01*
X111379Y150156D01*
X111377Y150042D01*
X111372Y149929D01*
X111362Y149815D01*
X111349Y149702D01*
X111332Y149590D01*
X111312Y149478D01*
X111288Y149367D01*
X111260Y149256D01*
X111229Y149147D01*
X111194Y149039D01*
X111155Y148932D01*
X111113Y148826D01*
X111068Y148722D01*
X111019Y148619D01*
X110966Y148518D01*
X110911Y148419D01*
X110852Y148321D01*
X110790Y148226D01*
X110725Y148133D01*
X110657Y148041D01*
X110586Y147953D01*
X110512Y147866D01*
X110435Y147782D01*
X110356Y147701D01*
X105650Y147906D02*
X105572Y147908D01*
X105494Y147913D01*
X105417Y147923D01*
X105340Y147936D01*
X105264Y147952D01*
X105189Y147972D01*
X105115Y147996D01*
X105042Y148023D01*
X104970Y148054D01*
X104900Y148088D01*
X104832Y148125D01*
X104765Y148166D01*
X104700Y148210D01*
X104638Y148256D01*
X104578Y148306D01*
X104520Y148358D01*
X104465Y148413D01*
X104413Y148471D01*
X104363Y148531D01*
X104317Y148593D01*
X104273Y148658D01*
X104232Y148725D01*
X104195Y148793D01*
X104161Y148863D01*
X104130Y148935D01*
X104103Y149008D01*
X104079Y149082D01*
X104059Y149157D01*
X104043Y149233D01*
X104030Y149310D01*
X104020Y149387D01*
X104015Y149465D01*
X104013Y149543D01*
X104015Y149653D01*
X104021Y149762D01*
X104031Y149872D01*
X104044Y149980D01*
X104062Y150089D01*
X104083Y150196D01*
X104109Y150303D01*
X104138Y150409D01*
X104170Y150514D01*
X104207Y150617D01*
X104247Y150719D01*
X104291Y150820D01*
X104339Y150919D01*
X104389Y151016D01*
X104444Y151111D01*
X104502Y151204D01*
X104563Y151295D01*
X104627Y151384D01*
X107082Y148724D02*
X107040Y148658D01*
X106996Y148593D01*
X106948Y148531D01*
X106898Y148471D01*
X106845Y148413D01*
X106789Y148358D01*
X106731Y148305D01*
X106670Y148256D01*
X106607Y148209D01*
X106542Y148165D01*
X106475Y148125D01*
X106406Y148088D01*
X106335Y148054D01*
X106263Y148023D01*
X106189Y147996D01*
X106114Y147972D01*
X106039Y147952D01*
X105962Y147936D01*
X105885Y147923D01*
X105807Y147913D01*
X105728Y147908D01*
X105650Y147906D01*
X108309Y150975D02*
X108351Y151042D01*
X108395Y151107D01*
X108443Y151169D01*
X108493Y151229D01*
X108546Y151287D01*
X108602Y151342D01*
X108661Y151394D01*
X108721Y151444D01*
X108785Y151491D01*
X108850Y151534D01*
X108917Y151575D01*
X108986Y151612D01*
X109057Y151646D01*
X109129Y151677D01*
X109203Y151704D01*
X109277Y151728D01*
X109353Y151748D01*
X109430Y151764D01*
X109507Y151777D01*
X109585Y151787D01*
X109664Y151792D01*
X109742Y151794D01*
X108310Y150975D02*
X107082Y148724D01*
X104013Y155016D02*
X111379Y155016D01*
X104013Y155016D02*
X104013Y157062D01*
X104015Y157151D01*
X104021Y157240D01*
X104031Y157329D01*
X104044Y157417D01*
X104061Y157505D01*
X104083Y157592D01*
X104108Y157677D01*
X104136Y157762D01*
X104169Y157845D01*
X104205Y157927D01*
X104244Y158007D01*
X104287Y158085D01*
X104333Y158161D01*
X104383Y158236D01*
X104436Y158308D01*
X104492Y158377D01*
X104551Y158444D01*
X104612Y158509D01*
X104677Y158570D01*
X104744Y158629D01*
X104813Y158685D01*
X104885Y158738D01*
X104960Y158788D01*
X105036Y158834D01*
X105114Y158877D01*
X105194Y158916D01*
X105276Y158952D01*
X105359Y158985D01*
X105444Y159013D01*
X105529Y159038D01*
X105616Y159060D01*
X105704Y159077D01*
X105792Y159090D01*
X105881Y159100D01*
X105970Y159106D01*
X106059Y159108D01*
X109333Y159108D01*
X109422Y159106D01*
X109511Y159100D01*
X109600Y159090D01*
X109688Y159077D01*
X109776Y159060D01*
X109863Y159038D01*
X109948Y159013D01*
X110033Y158985D01*
X110116Y158952D01*
X110198Y158916D01*
X110278Y158877D01*
X110356Y158834D01*
X110432Y158788D01*
X110507Y158738D01*
X110579Y158685D01*
X110648Y158629D01*
X110715Y158570D01*
X110780Y158509D01*
X110841Y158444D01*
X110900Y158377D01*
X110956Y158308D01*
X111009Y158236D01*
X111059Y158161D01*
X111105Y158085D01*
X111148Y158007D01*
X111187Y157927D01*
X111223Y157845D01*
X111256Y157762D01*
X111284Y157677D01*
X111309Y157592D01*
X111331Y157505D01*
X111348Y157417D01*
X111361Y157329D01*
X111371Y157240D01*
X111377Y157151D01*
X111379Y157062D01*
X111379Y155016D01*
X111379Y162166D02*
X104013Y164621D01*
X111379Y167077D01*
X109538Y166463D02*
X109538Y162780D01*
X111379Y185716D02*
X111377Y185794D01*
X111372Y185872D01*
X111362Y185949D01*
X111349Y186026D01*
X111333Y186102D01*
X111313Y186177D01*
X111289Y186251D01*
X111262Y186324D01*
X111231Y186396D01*
X111197Y186466D01*
X111160Y186535D01*
X111119Y186601D01*
X111075Y186666D01*
X111029Y186728D01*
X110979Y186788D01*
X110927Y186846D01*
X110872Y186901D01*
X110814Y186953D01*
X110754Y187003D01*
X110692Y187049D01*
X110627Y187093D01*
X110561Y187134D01*
X110492Y187171D01*
X110422Y187205D01*
X110350Y187236D01*
X110277Y187263D01*
X110203Y187287D01*
X110128Y187307D01*
X110052Y187323D01*
X109975Y187336D01*
X109898Y187346D01*
X109820Y187351D01*
X109742Y187353D01*
X111379Y185716D02*
X111377Y185602D01*
X111372Y185489D01*
X111362Y185375D01*
X111349Y185262D01*
X111332Y185150D01*
X111312Y185038D01*
X111288Y184927D01*
X111260Y184816D01*
X111229Y184707D01*
X111194Y184599D01*
X111155Y184492D01*
X111113Y184386D01*
X111068Y184282D01*
X111019Y184179D01*
X110966Y184078D01*
X110911Y183979D01*
X110852Y183881D01*
X110790Y183786D01*
X110725Y183693D01*
X110657Y183601D01*
X110586Y183513D01*
X110512Y183426D01*
X110435Y183342D01*
X110356Y183261D01*
X105650Y183466D02*
X105572Y183468D01*
X105494Y183473D01*
X105417Y183483D01*
X105340Y183496D01*
X105264Y183512D01*
X105189Y183532D01*
X105115Y183556D01*
X105042Y183583D01*
X104970Y183614D01*
X104900Y183648D01*
X104832Y183685D01*
X104765Y183726D01*
X104700Y183770D01*
X104638Y183816D01*
X104578Y183866D01*
X104520Y183918D01*
X104465Y183973D01*
X104413Y184031D01*
X104363Y184091D01*
X104317Y184153D01*
X104273Y184218D01*
X104232Y184285D01*
X104195Y184353D01*
X104161Y184423D01*
X104130Y184495D01*
X104103Y184568D01*
X104079Y184642D01*
X104059Y184717D01*
X104043Y184793D01*
X104030Y184870D01*
X104020Y184947D01*
X104015Y185025D01*
X104013Y185103D01*
X104015Y185213D01*
X104021Y185322D01*
X104031Y185432D01*
X104044Y185540D01*
X104062Y185649D01*
X104083Y185756D01*
X104109Y185863D01*
X104138Y185969D01*
X104170Y186074D01*
X104207Y186177D01*
X104247Y186279D01*
X104291Y186380D01*
X104339Y186479D01*
X104389Y186576D01*
X104444Y186671D01*
X104502Y186764D01*
X104563Y186855D01*
X104627Y186944D01*
X107082Y184284D02*
X107040Y184218D01*
X106996Y184153D01*
X106948Y184091D01*
X106898Y184031D01*
X106845Y183973D01*
X106789Y183918D01*
X106731Y183865D01*
X106670Y183816D01*
X106607Y183769D01*
X106542Y183725D01*
X106475Y183685D01*
X106406Y183648D01*
X106335Y183614D01*
X106263Y183583D01*
X106189Y183556D01*
X106114Y183532D01*
X106039Y183512D01*
X105962Y183496D01*
X105885Y183483D01*
X105807Y183473D01*
X105728Y183468D01*
X105650Y183466D01*
X108309Y186535D02*
X108351Y186602D01*
X108395Y186667D01*
X108443Y186729D01*
X108493Y186789D01*
X108546Y186847D01*
X108602Y186902D01*
X108661Y186954D01*
X108721Y187004D01*
X108785Y187051D01*
X108850Y187094D01*
X108917Y187135D01*
X108986Y187172D01*
X109057Y187206D01*
X109129Y187237D01*
X109203Y187264D01*
X109277Y187288D01*
X109353Y187308D01*
X109430Y187324D01*
X109507Y187337D01*
X109585Y187347D01*
X109664Y187352D01*
X109742Y187354D01*
X108310Y186535D02*
X107082Y184284D01*
X111379Y191946D02*
X111379Y193583D01*
X111379Y191946D02*
X111377Y191868D01*
X111372Y191790D01*
X111362Y191713D01*
X111349Y191636D01*
X111333Y191560D01*
X111313Y191485D01*
X111289Y191411D01*
X111262Y191338D01*
X111231Y191266D01*
X111197Y191196D01*
X111160Y191128D01*
X111119Y191061D01*
X111075Y190996D01*
X111029Y190934D01*
X110979Y190874D01*
X110927Y190816D01*
X110872Y190761D01*
X110814Y190709D01*
X110754Y190659D01*
X110692Y190613D01*
X110627Y190569D01*
X110561Y190528D01*
X110492Y190491D01*
X110422Y190457D01*
X110350Y190426D01*
X110277Y190399D01*
X110203Y190375D01*
X110128Y190355D01*
X110052Y190339D01*
X109975Y190326D01*
X109898Y190316D01*
X109820Y190311D01*
X109742Y190309D01*
X105650Y190309D01*
X105570Y190311D01*
X105490Y190317D01*
X105410Y190327D01*
X105331Y190340D01*
X105252Y190358D01*
X105175Y190379D01*
X105099Y190405D01*
X105024Y190434D01*
X104950Y190466D01*
X104878Y190502D01*
X104808Y190542D01*
X104741Y190585D01*
X104675Y190631D01*
X104612Y190681D01*
X104551Y190733D01*
X104492Y190788D01*
X104437Y190847D01*
X104385Y190907D01*
X104335Y190971D01*
X104289Y191036D01*
X104246Y191104D01*
X104206Y191174D01*
X104170Y191246D01*
X104138Y191320D01*
X104109Y191394D01*
X104084Y191471D01*
X104062Y191548D01*
X104044Y191627D01*
X104031Y191706D01*
X104021Y191785D01*
X104015Y191866D01*
X104013Y191946D01*
X104013Y193583D01*
X104013Y196688D02*
X111379Y196688D01*
X111379Y199962D01*
D12*
X129050Y222082D02*
X192550Y222082D01*
X129050Y222082D02*
X129050Y129118D01*
X192550Y129118D01*
X192550Y222082D01*
X170452Y221574D02*
X170443Y221341D01*
X170428Y221108D01*
X170407Y220875D01*
X170381Y220643D01*
X170349Y220412D01*
X170312Y220181D01*
X170268Y219952D01*
X170220Y219723D01*
X170165Y219496D01*
X170105Y219270D01*
X170040Y219046D01*
X169969Y218824D01*
X169893Y218603D01*
X169811Y218384D01*
X169724Y218168D01*
X169631Y217953D01*
X169534Y217741D01*
X169431Y217531D01*
X169323Y217324D01*
X169210Y217120D01*
X169093Y216918D01*
X168970Y216719D01*
X168842Y216524D01*
X168710Y216331D01*
X168573Y216142D01*
X168431Y215957D01*
X168285Y215775D01*
X168134Y215596D01*
X167979Y215421D01*
X167820Y215250D01*
X167657Y215083D01*
X167490Y214921D01*
X167318Y214762D01*
X167143Y214607D01*
X166965Y214457D01*
X166782Y214311D01*
X166596Y214170D01*
X166407Y214033D01*
X166214Y213901D01*
X166018Y213774D01*
X165819Y213652D01*
X165617Y213534D01*
X165413Y213422D01*
X165205Y213315D01*
X164996Y213212D01*
X164783Y213115D01*
X164568Y213023D01*
X164352Y212937D01*
X164133Y212855D01*
X163912Y212780D01*
X163689Y212709D01*
X163465Y212644D01*
X163239Y212585D01*
X163012Y212531D01*
X162783Y212483D01*
X162554Y212440D01*
X162323Y212403D01*
X162092Y212371D01*
X161860Y212346D01*
X161627Y212326D01*
X161394Y212311D01*
X161161Y212303D01*
X160927Y212300D01*
X160693Y212303D01*
X160460Y212311D01*
X160227Y212326D01*
X159994Y212346D01*
X159762Y212371D01*
X159531Y212403D01*
X159300Y212440D01*
X159071Y212483D01*
X158842Y212531D01*
X158615Y212585D01*
X158389Y212644D01*
X158165Y212709D01*
X157942Y212780D01*
X157721Y212855D01*
X157502Y212937D01*
X157286Y213023D01*
X157071Y213115D01*
X156858Y213212D01*
X156649Y213315D01*
X156441Y213422D01*
X156237Y213534D01*
X156035Y213652D01*
X155836Y213774D01*
X155640Y213901D01*
X155447Y214033D01*
X155258Y214170D01*
X155072Y214311D01*
X154889Y214457D01*
X154711Y214607D01*
X154536Y214762D01*
X154364Y214921D01*
X154197Y215083D01*
X154034Y215250D01*
X153875Y215421D01*
X153720Y215596D01*
X153569Y215775D01*
X153423Y215957D01*
X153281Y216142D01*
X153144Y216331D01*
X153012Y216524D01*
X152884Y216719D01*
X152761Y216918D01*
X152644Y217120D01*
X152531Y217324D01*
X152423Y217531D01*
X152320Y217741D01*
X152223Y217953D01*
X152130Y218168D01*
X152043Y218384D01*
X151961Y218603D01*
X151885Y218824D01*
X151814Y219046D01*
X151749Y219270D01*
X151689Y219496D01*
X151634Y219723D01*
X151586Y219952D01*
X151542Y220181D01*
X151505Y220412D01*
X151473Y220643D01*
X151447Y220875D01*
X151426Y221108D01*
X151411Y221341D01*
X151402Y221574D01*
X99500Y251250D02*
X99500Y94750D01*
X99500Y251250D02*
X16500Y251250D01*
X500Y238000D01*
X500Y108000D01*
X16500Y94750D01*
X99500Y94750D01*
X208500Y281500D02*
X399000Y281500D01*
X208500Y281500D02*
X208500Y91000D01*
X399000Y91000D01*
X399000Y281500D01*
M02*
