G04 EAGLE Gerber X2 export*
G75*
%MOMM*%
%FSLAX34Y34*%
%LPD*%
%AMOC8*
5,1,8,0,0,1.08239X$1,22.5*%
G01*
%ADD10C,0.001000*%
%ADD11C,0.254000*%


D10*
X386767Y49484D02*
X386772Y49871D01*
X386786Y50257D01*
X386810Y50643D01*
X386843Y51028D01*
X386885Y51412D01*
X386937Y51795D01*
X386999Y52177D01*
X387070Y52557D01*
X387150Y52935D01*
X387239Y53311D01*
X387338Y53685D01*
X387445Y54056D01*
X387562Y54424D01*
X387688Y54790D01*
X387822Y55152D01*
X387966Y55511D01*
X388118Y55867D01*
X388279Y56218D01*
X388449Y56565D01*
X388627Y56908D01*
X388813Y57247D01*
X389008Y57581D01*
X389211Y57910D01*
X389421Y58234D01*
X389640Y58553D01*
X389866Y58866D01*
X390101Y59174D01*
X390342Y59476D01*
X390591Y59771D01*
X390847Y60061D01*
X391110Y60344D01*
X391380Y60621D01*
X391657Y60891D01*
X391940Y61154D01*
X392230Y61410D01*
X392525Y61659D01*
X392827Y61900D01*
X393135Y62135D01*
X393448Y62361D01*
X393767Y62580D01*
X394091Y62790D01*
X394420Y62993D01*
X394754Y63188D01*
X395093Y63374D01*
X395436Y63552D01*
X395783Y63722D01*
X396134Y63883D01*
X396490Y64035D01*
X396849Y64179D01*
X397211Y64313D01*
X397577Y64439D01*
X397945Y64556D01*
X398316Y64663D01*
X398690Y64762D01*
X399066Y64851D01*
X399444Y64931D01*
X399824Y65002D01*
X400206Y65064D01*
X400589Y65116D01*
X400973Y65158D01*
X401358Y65191D01*
X401744Y65215D01*
X402130Y65229D01*
X402517Y65234D01*
X402904Y65229D01*
X403290Y65215D01*
X403676Y65191D01*
X404061Y65158D01*
X404445Y65116D01*
X404828Y65064D01*
X405210Y65002D01*
X405590Y64931D01*
X405968Y64851D01*
X406344Y64762D01*
X406718Y64663D01*
X407089Y64556D01*
X407457Y64439D01*
X407823Y64313D01*
X408185Y64179D01*
X408544Y64035D01*
X408900Y63883D01*
X409251Y63722D01*
X409598Y63552D01*
X409941Y63374D01*
X410280Y63188D01*
X410614Y62993D01*
X410943Y62790D01*
X411267Y62580D01*
X411586Y62361D01*
X411899Y62135D01*
X412207Y61900D01*
X412509Y61659D01*
X412804Y61410D01*
X413094Y61154D01*
X413377Y60891D01*
X413654Y60621D01*
X413924Y60344D01*
X414187Y60061D01*
X414443Y59771D01*
X414692Y59476D01*
X414933Y59174D01*
X415168Y58866D01*
X415394Y58553D01*
X415613Y58234D01*
X415823Y57910D01*
X416026Y57581D01*
X416221Y57247D01*
X416407Y56908D01*
X416585Y56565D01*
X416755Y56218D01*
X416916Y55867D01*
X417068Y55511D01*
X417212Y55152D01*
X417346Y54790D01*
X417472Y54424D01*
X417589Y54056D01*
X417696Y53685D01*
X417795Y53311D01*
X417884Y52935D01*
X417964Y52557D01*
X418035Y52177D01*
X418097Y51795D01*
X418149Y51412D01*
X418191Y51028D01*
X418224Y50643D01*
X418248Y50257D01*
X418262Y49871D01*
X418267Y49484D01*
X418262Y49097D01*
X418248Y48711D01*
X418224Y48325D01*
X418191Y47940D01*
X418149Y47556D01*
X418097Y47173D01*
X418035Y46791D01*
X417964Y46411D01*
X417884Y46033D01*
X417795Y45657D01*
X417696Y45283D01*
X417589Y44912D01*
X417472Y44544D01*
X417346Y44178D01*
X417212Y43816D01*
X417068Y43457D01*
X416916Y43101D01*
X416755Y42750D01*
X416585Y42403D01*
X416407Y42060D01*
X416221Y41721D01*
X416026Y41387D01*
X415823Y41058D01*
X415613Y40734D01*
X415394Y40415D01*
X415168Y40102D01*
X414933Y39794D01*
X414692Y39492D01*
X414443Y39197D01*
X414187Y38907D01*
X413924Y38624D01*
X413654Y38347D01*
X413377Y38077D01*
X413094Y37814D01*
X412804Y37558D01*
X412509Y37309D01*
X412207Y37068D01*
X411899Y36833D01*
X411586Y36607D01*
X411267Y36388D01*
X410943Y36178D01*
X410614Y35975D01*
X410280Y35780D01*
X409941Y35594D01*
X409598Y35416D01*
X409251Y35246D01*
X408900Y35085D01*
X408544Y34933D01*
X408185Y34789D01*
X407823Y34655D01*
X407457Y34529D01*
X407089Y34412D01*
X406718Y34305D01*
X406344Y34206D01*
X405968Y34117D01*
X405590Y34037D01*
X405210Y33966D01*
X404828Y33904D01*
X404445Y33852D01*
X404061Y33810D01*
X403676Y33777D01*
X403290Y33753D01*
X402904Y33739D01*
X402517Y33734D01*
X402130Y33739D01*
X401744Y33753D01*
X401358Y33777D01*
X400973Y33810D01*
X400589Y33852D01*
X400206Y33904D01*
X399824Y33966D01*
X399444Y34037D01*
X399066Y34117D01*
X398690Y34206D01*
X398316Y34305D01*
X397945Y34412D01*
X397577Y34529D01*
X397211Y34655D01*
X396849Y34789D01*
X396490Y34933D01*
X396134Y35085D01*
X395783Y35246D01*
X395436Y35416D01*
X395093Y35594D01*
X394754Y35780D01*
X394420Y35975D01*
X394091Y36178D01*
X393767Y36388D01*
X393448Y36607D01*
X393135Y36833D01*
X392827Y37068D01*
X392525Y37309D01*
X392230Y37558D01*
X391940Y37814D01*
X391657Y38077D01*
X391380Y38347D01*
X391110Y38624D01*
X390847Y38907D01*
X390591Y39197D01*
X390342Y39492D01*
X390101Y39794D01*
X389866Y40102D01*
X389640Y40415D01*
X389421Y40734D01*
X389211Y41058D01*
X389008Y41387D01*
X388813Y41721D01*
X388627Y42060D01*
X388449Y42403D01*
X388279Y42750D01*
X388118Y43101D01*
X387966Y43457D01*
X387822Y43816D01*
X387688Y44178D01*
X387562Y44544D01*
X387445Y44912D01*
X387338Y45283D01*
X387239Y45657D01*
X387150Y46033D01*
X387070Y46411D01*
X386999Y46791D01*
X386937Y47173D01*
X386885Y47556D01*
X386843Y47940D01*
X386810Y48325D01*
X386786Y48711D01*
X386772Y49097D01*
X386767Y49484D01*
X386767Y302517D02*
X386772Y302904D01*
X386786Y303290D01*
X386810Y303676D01*
X386843Y304061D01*
X386885Y304445D01*
X386937Y304828D01*
X386999Y305210D01*
X387070Y305590D01*
X387150Y305968D01*
X387239Y306344D01*
X387338Y306718D01*
X387445Y307089D01*
X387562Y307457D01*
X387688Y307823D01*
X387822Y308185D01*
X387966Y308544D01*
X388118Y308900D01*
X388279Y309251D01*
X388449Y309598D01*
X388627Y309941D01*
X388813Y310280D01*
X389008Y310614D01*
X389211Y310943D01*
X389421Y311267D01*
X389640Y311586D01*
X389866Y311899D01*
X390101Y312207D01*
X390342Y312509D01*
X390591Y312804D01*
X390847Y313094D01*
X391110Y313377D01*
X391380Y313654D01*
X391657Y313924D01*
X391940Y314187D01*
X392230Y314443D01*
X392525Y314692D01*
X392827Y314933D01*
X393135Y315168D01*
X393448Y315394D01*
X393767Y315613D01*
X394091Y315823D01*
X394420Y316026D01*
X394754Y316221D01*
X395093Y316407D01*
X395436Y316585D01*
X395783Y316755D01*
X396134Y316916D01*
X396490Y317068D01*
X396849Y317212D01*
X397211Y317346D01*
X397577Y317472D01*
X397945Y317589D01*
X398316Y317696D01*
X398690Y317795D01*
X399066Y317884D01*
X399444Y317964D01*
X399824Y318035D01*
X400206Y318097D01*
X400589Y318149D01*
X400973Y318191D01*
X401358Y318224D01*
X401744Y318248D01*
X402130Y318262D01*
X402517Y318267D01*
X402904Y318262D01*
X403290Y318248D01*
X403676Y318224D01*
X404061Y318191D01*
X404445Y318149D01*
X404828Y318097D01*
X405210Y318035D01*
X405590Y317964D01*
X405968Y317884D01*
X406344Y317795D01*
X406718Y317696D01*
X407089Y317589D01*
X407457Y317472D01*
X407823Y317346D01*
X408185Y317212D01*
X408544Y317068D01*
X408900Y316916D01*
X409251Y316755D01*
X409598Y316585D01*
X409941Y316407D01*
X410280Y316221D01*
X410614Y316026D01*
X410943Y315823D01*
X411267Y315613D01*
X411586Y315394D01*
X411899Y315168D01*
X412207Y314933D01*
X412509Y314692D01*
X412804Y314443D01*
X413094Y314187D01*
X413377Y313924D01*
X413654Y313654D01*
X413924Y313377D01*
X414187Y313094D01*
X414443Y312804D01*
X414692Y312509D01*
X414933Y312207D01*
X415168Y311899D01*
X415394Y311586D01*
X415613Y311267D01*
X415823Y310943D01*
X416026Y310614D01*
X416221Y310280D01*
X416407Y309941D01*
X416585Y309598D01*
X416755Y309251D01*
X416916Y308900D01*
X417068Y308544D01*
X417212Y308185D01*
X417346Y307823D01*
X417472Y307457D01*
X417589Y307089D01*
X417696Y306718D01*
X417795Y306344D01*
X417884Y305968D01*
X417964Y305590D01*
X418035Y305210D01*
X418097Y304828D01*
X418149Y304445D01*
X418191Y304061D01*
X418224Y303676D01*
X418248Y303290D01*
X418262Y302904D01*
X418267Y302517D01*
X418262Y302130D01*
X418248Y301744D01*
X418224Y301358D01*
X418191Y300973D01*
X418149Y300589D01*
X418097Y300206D01*
X418035Y299824D01*
X417964Y299444D01*
X417884Y299066D01*
X417795Y298690D01*
X417696Y298316D01*
X417589Y297945D01*
X417472Y297577D01*
X417346Y297211D01*
X417212Y296849D01*
X417068Y296490D01*
X416916Y296134D01*
X416755Y295783D01*
X416585Y295436D01*
X416407Y295093D01*
X416221Y294754D01*
X416026Y294420D01*
X415823Y294091D01*
X415613Y293767D01*
X415394Y293448D01*
X415168Y293135D01*
X414933Y292827D01*
X414692Y292525D01*
X414443Y292230D01*
X414187Y291940D01*
X413924Y291657D01*
X413654Y291380D01*
X413377Y291110D01*
X413094Y290847D01*
X412804Y290591D01*
X412509Y290342D01*
X412207Y290101D01*
X411899Y289866D01*
X411586Y289640D01*
X411267Y289421D01*
X410943Y289211D01*
X410614Y289008D01*
X410280Y288813D01*
X409941Y288627D01*
X409598Y288449D01*
X409251Y288279D01*
X408900Y288118D01*
X408544Y287966D01*
X408185Y287822D01*
X407823Y287688D01*
X407457Y287562D01*
X407089Y287445D01*
X406718Y287338D01*
X406344Y287239D01*
X405968Y287150D01*
X405590Y287070D01*
X405210Y286999D01*
X404828Y286937D01*
X404445Y286885D01*
X404061Y286843D01*
X403676Y286810D01*
X403290Y286786D01*
X402904Y286772D01*
X402517Y286767D01*
X402130Y286772D01*
X401744Y286786D01*
X401358Y286810D01*
X400973Y286843D01*
X400589Y286885D01*
X400206Y286937D01*
X399824Y286999D01*
X399444Y287070D01*
X399066Y287150D01*
X398690Y287239D01*
X398316Y287338D01*
X397945Y287445D01*
X397577Y287562D01*
X397211Y287688D01*
X396849Y287822D01*
X396490Y287966D01*
X396134Y288118D01*
X395783Y288279D01*
X395436Y288449D01*
X395093Y288627D01*
X394754Y288813D01*
X394420Y289008D01*
X394091Y289211D01*
X393767Y289421D01*
X393448Y289640D01*
X393135Y289866D01*
X392827Y290101D01*
X392525Y290342D01*
X392230Y290591D01*
X391940Y290847D01*
X391657Y291110D01*
X391380Y291380D01*
X391110Y291657D01*
X390847Y291940D01*
X390591Y292230D01*
X390342Y292525D01*
X390101Y292827D01*
X389866Y293135D01*
X389640Y293448D01*
X389421Y293767D01*
X389211Y294091D01*
X389008Y294420D01*
X388813Y294754D01*
X388627Y295093D01*
X388449Y295436D01*
X388279Y295783D01*
X388118Y296134D01*
X387966Y296490D01*
X387822Y296849D01*
X387688Y297211D01*
X387562Y297577D01*
X387445Y297945D01*
X387338Y298316D01*
X387239Y298690D01*
X387150Y299066D01*
X387070Y299444D01*
X386999Y299824D01*
X386937Y300206D01*
X386885Y300589D01*
X386843Y300973D01*
X386810Y301358D01*
X386786Y301744D01*
X386772Y302130D01*
X386767Y302517D01*
X33734Y302517D02*
X33739Y302904D01*
X33753Y303290D01*
X33777Y303676D01*
X33810Y304061D01*
X33852Y304445D01*
X33904Y304828D01*
X33966Y305210D01*
X34037Y305590D01*
X34117Y305968D01*
X34206Y306344D01*
X34305Y306718D01*
X34412Y307089D01*
X34529Y307457D01*
X34655Y307823D01*
X34789Y308185D01*
X34933Y308544D01*
X35085Y308900D01*
X35246Y309251D01*
X35416Y309598D01*
X35594Y309941D01*
X35780Y310280D01*
X35975Y310614D01*
X36178Y310943D01*
X36388Y311267D01*
X36607Y311586D01*
X36833Y311899D01*
X37068Y312207D01*
X37309Y312509D01*
X37558Y312804D01*
X37814Y313094D01*
X38077Y313377D01*
X38347Y313654D01*
X38624Y313924D01*
X38907Y314187D01*
X39197Y314443D01*
X39492Y314692D01*
X39794Y314933D01*
X40102Y315168D01*
X40415Y315394D01*
X40734Y315613D01*
X41058Y315823D01*
X41387Y316026D01*
X41721Y316221D01*
X42060Y316407D01*
X42403Y316585D01*
X42750Y316755D01*
X43101Y316916D01*
X43457Y317068D01*
X43816Y317212D01*
X44178Y317346D01*
X44544Y317472D01*
X44912Y317589D01*
X45283Y317696D01*
X45657Y317795D01*
X46033Y317884D01*
X46411Y317964D01*
X46791Y318035D01*
X47173Y318097D01*
X47556Y318149D01*
X47940Y318191D01*
X48325Y318224D01*
X48711Y318248D01*
X49097Y318262D01*
X49484Y318267D01*
X49871Y318262D01*
X50257Y318248D01*
X50643Y318224D01*
X51028Y318191D01*
X51412Y318149D01*
X51795Y318097D01*
X52177Y318035D01*
X52557Y317964D01*
X52935Y317884D01*
X53311Y317795D01*
X53685Y317696D01*
X54056Y317589D01*
X54424Y317472D01*
X54790Y317346D01*
X55152Y317212D01*
X55511Y317068D01*
X55867Y316916D01*
X56218Y316755D01*
X56565Y316585D01*
X56908Y316407D01*
X57247Y316221D01*
X57581Y316026D01*
X57910Y315823D01*
X58234Y315613D01*
X58553Y315394D01*
X58866Y315168D01*
X59174Y314933D01*
X59476Y314692D01*
X59771Y314443D01*
X60061Y314187D01*
X60344Y313924D01*
X60621Y313654D01*
X60891Y313377D01*
X61154Y313094D01*
X61410Y312804D01*
X61659Y312509D01*
X61900Y312207D01*
X62135Y311899D01*
X62361Y311586D01*
X62580Y311267D01*
X62790Y310943D01*
X62993Y310614D01*
X63188Y310280D01*
X63374Y309941D01*
X63552Y309598D01*
X63722Y309251D01*
X63883Y308900D01*
X64035Y308544D01*
X64179Y308185D01*
X64313Y307823D01*
X64439Y307457D01*
X64556Y307089D01*
X64663Y306718D01*
X64762Y306344D01*
X64851Y305968D01*
X64931Y305590D01*
X65002Y305210D01*
X65064Y304828D01*
X65116Y304445D01*
X65158Y304061D01*
X65191Y303676D01*
X65215Y303290D01*
X65229Y302904D01*
X65234Y302517D01*
X65229Y302130D01*
X65215Y301744D01*
X65191Y301358D01*
X65158Y300973D01*
X65116Y300589D01*
X65064Y300206D01*
X65002Y299824D01*
X64931Y299444D01*
X64851Y299066D01*
X64762Y298690D01*
X64663Y298316D01*
X64556Y297945D01*
X64439Y297577D01*
X64313Y297211D01*
X64179Y296849D01*
X64035Y296490D01*
X63883Y296134D01*
X63722Y295783D01*
X63552Y295436D01*
X63374Y295093D01*
X63188Y294754D01*
X62993Y294420D01*
X62790Y294091D01*
X62580Y293767D01*
X62361Y293448D01*
X62135Y293135D01*
X61900Y292827D01*
X61659Y292525D01*
X61410Y292230D01*
X61154Y291940D01*
X60891Y291657D01*
X60621Y291380D01*
X60344Y291110D01*
X60061Y290847D01*
X59771Y290591D01*
X59476Y290342D01*
X59174Y290101D01*
X58866Y289866D01*
X58553Y289640D01*
X58234Y289421D01*
X57910Y289211D01*
X57581Y289008D01*
X57247Y288813D01*
X56908Y288627D01*
X56565Y288449D01*
X56218Y288279D01*
X55867Y288118D01*
X55511Y287966D01*
X55152Y287822D01*
X54790Y287688D01*
X54424Y287562D01*
X54056Y287445D01*
X53685Y287338D01*
X53311Y287239D01*
X52935Y287150D01*
X52557Y287070D01*
X52177Y286999D01*
X51795Y286937D01*
X51412Y286885D01*
X51028Y286843D01*
X50643Y286810D01*
X50257Y286786D01*
X49871Y286772D01*
X49484Y286767D01*
X49097Y286772D01*
X48711Y286786D01*
X48325Y286810D01*
X47940Y286843D01*
X47556Y286885D01*
X47173Y286937D01*
X46791Y286999D01*
X46411Y287070D01*
X46033Y287150D01*
X45657Y287239D01*
X45283Y287338D01*
X44912Y287445D01*
X44544Y287562D01*
X44178Y287688D01*
X43816Y287822D01*
X43457Y287966D01*
X43101Y288118D01*
X42750Y288279D01*
X42403Y288449D01*
X42060Y288627D01*
X41721Y288813D01*
X41387Y289008D01*
X41058Y289211D01*
X40734Y289421D01*
X40415Y289640D01*
X40102Y289866D01*
X39794Y290101D01*
X39492Y290342D01*
X39197Y290591D01*
X38907Y290847D01*
X38624Y291110D01*
X38347Y291380D01*
X38077Y291657D01*
X37814Y291940D01*
X37558Y292230D01*
X37309Y292525D01*
X37068Y292827D01*
X36833Y293135D01*
X36607Y293448D01*
X36388Y293767D01*
X36178Y294091D01*
X35975Y294420D01*
X35780Y294754D01*
X35594Y295093D01*
X35416Y295436D01*
X35246Y295783D01*
X35085Y296134D01*
X34933Y296490D01*
X34789Y296849D01*
X34655Y297211D01*
X34529Y297577D01*
X34412Y297945D01*
X34305Y298316D01*
X34206Y298690D01*
X34117Y299066D01*
X34037Y299444D01*
X33966Y299824D01*
X33904Y300206D01*
X33852Y300589D01*
X33810Y300973D01*
X33777Y301358D01*
X33753Y301744D01*
X33739Y302130D01*
X33734Y302517D01*
X33734Y49484D02*
X33739Y49871D01*
X33753Y50257D01*
X33777Y50643D01*
X33810Y51028D01*
X33852Y51412D01*
X33904Y51795D01*
X33966Y52177D01*
X34037Y52557D01*
X34117Y52935D01*
X34206Y53311D01*
X34305Y53685D01*
X34412Y54056D01*
X34529Y54424D01*
X34655Y54790D01*
X34789Y55152D01*
X34933Y55511D01*
X35085Y55867D01*
X35246Y56218D01*
X35416Y56565D01*
X35594Y56908D01*
X35780Y57247D01*
X35975Y57581D01*
X36178Y57910D01*
X36388Y58234D01*
X36607Y58553D01*
X36833Y58866D01*
X37068Y59174D01*
X37309Y59476D01*
X37558Y59771D01*
X37814Y60061D01*
X38077Y60344D01*
X38347Y60621D01*
X38624Y60891D01*
X38907Y61154D01*
X39197Y61410D01*
X39492Y61659D01*
X39794Y61900D01*
X40102Y62135D01*
X40415Y62361D01*
X40734Y62580D01*
X41058Y62790D01*
X41387Y62993D01*
X41721Y63188D01*
X42060Y63374D01*
X42403Y63552D01*
X42750Y63722D01*
X43101Y63883D01*
X43457Y64035D01*
X43816Y64179D01*
X44178Y64313D01*
X44544Y64439D01*
X44912Y64556D01*
X45283Y64663D01*
X45657Y64762D01*
X46033Y64851D01*
X46411Y64931D01*
X46791Y65002D01*
X47173Y65064D01*
X47556Y65116D01*
X47940Y65158D01*
X48325Y65191D01*
X48711Y65215D01*
X49097Y65229D01*
X49484Y65234D01*
X49871Y65229D01*
X50257Y65215D01*
X50643Y65191D01*
X51028Y65158D01*
X51412Y65116D01*
X51795Y65064D01*
X52177Y65002D01*
X52557Y64931D01*
X52935Y64851D01*
X53311Y64762D01*
X53685Y64663D01*
X54056Y64556D01*
X54424Y64439D01*
X54790Y64313D01*
X55152Y64179D01*
X55511Y64035D01*
X55867Y63883D01*
X56218Y63722D01*
X56565Y63552D01*
X56908Y63374D01*
X57247Y63188D01*
X57581Y62993D01*
X57910Y62790D01*
X58234Y62580D01*
X58553Y62361D01*
X58866Y62135D01*
X59174Y61900D01*
X59476Y61659D01*
X59771Y61410D01*
X60061Y61154D01*
X60344Y60891D01*
X60621Y60621D01*
X60891Y60344D01*
X61154Y60061D01*
X61410Y59771D01*
X61659Y59476D01*
X61900Y59174D01*
X62135Y58866D01*
X62361Y58553D01*
X62580Y58234D01*
X62790Y57910D01*
X62993Y57581D01*
X63188Y57247D01*
X63374Y56908D01*
X63552Y56565D01*
X63722Y56218D01*
X63883Y55867D01*
X64035Y55511D01*
X64179Y55152D01*
X64313Y54790D01*
X64439Y54424D01*
X64556Y54056D01*
X64663Y53685D01*
X64762Y53311D01*
X64851Y52935D01*
X64931Y52557D01*
X65002Y52177D01*
X65064Y51795D01*
X65116Y51412D01*
X65158Y51028D01*
X65191Y50643D01*
X65215Y50257D01*
X65229Y49871D01*
X65234Y49484D01*
X65229Y49097D01*
X65215Y48711D01*
X65191Y48325D01*
X65158Y47940D01*
X65116Y47556D01*
X65064Y47173D01*
X65002Y46791D01*
X64931Y46411D01*
X64851Y46033D01*
X64762Y45657D01*
X64663Y45283D01*
X64556Y44912D01*
X64439Y44544D01*
X64313Y44178D01*
X64179Y43816D01*
X64035Y43457D01*
X63883Y43101D01*
X63722Y42750D01*
X63552Y42403D01*
X63374Y42060D01*
X63188Y41721D01*
X62993Y41387D01*
X62790Y41058D01*
X62580Y40734D01*
X62361Y40415D01*
X62135Y40102D01*
X61900Y39794D01*
X61659Y39492D01*
X61410Y39197D01*
X61154Y38907D01*
X60891Y38624D01*
X60621Y38347D01*
X60344Y38077D01*
X60061Y37814D01*
X59771Y37558D01*
X59476Y37309D01*
X59174Y37068D01*
X58866Y36833D01*
X58553Y36607D01*
X58234Y36388D01*
X57910Y36178D01*
X57581Y35975D01*
X57247Y35780D01*
X56908Y35594D01*
X56565Y35416D01*
X56218Y35246D01*
X55867Y35085D01*
X55511Y34933D01*
X55152Y34789D01*
X54790Y34655D01*
X54424Y34529D01*
X54056Y34412D01*
X53685Y34305D01*
X53311Y34206D01*
X52935Y34117D01*
X52557Y34037D01*
X52177Y33966D01*
X51795Y33904D01*
X51412Y33852D01*
X51028Y33810D01*
X50643Y33777D01*
X50257Y33753D01*
X49871Y33739D01*
X49484Y33734D01*
X49097Y33739D01*
X48711Y33753D01*
X48325Y33777D01*
X47940Y33810D01*
X47556Y33852D01*
X47173Y33904D01*
X46791Y33966D01*
X46411Y34037D01*
X46033Y34117D01*
X45657Y34206D01*
X45283Y34305D01*
X44912Y34412D01*
X44544Y34529D01*
X44178Y34655D01*
X43816Y34789D01*
X43457Y34933D01*
X43101Y35085D01*
X42750Y35246D01*
X42403Y35416D01*
X42060Y35594D01*
X41721Y35780D01*
X41387Y35975D01*
X41058Y36178D01*
X40734Y36388D01*
X40415Y36607D01*
X40102Y36833D01*
X39794Y37068D01*
X39492Y37309D01*
X39197Y37558D01*
X38907Y37814D01*
X38624Y38077D01*
X38347Y38347D01*
X38077Y38624D01*
X37814Y38907D01*
X37558Y39197D01*
X37309Y39492D01*
X37068Y39794D01*
X36833Y40102D01*
X36607Y40415D01*
X36388Y40734D01*
X36178Y41058D01*
X35975Y41387D01*
X35780Y41721D01*
X35594Y42060D01*
X35416Y42403D01*
X35246Y42750D01*
X35085Y43101D01*
X34933Y43457D01*
X34789Y43816D01*
X34655Y44178D01*
X34529Y44544D01*
X34412Y44912D01*
X34305Y45283D01*
X34206Y45657D01*
X34117Y46033D01*
X34037Y46411D01*
X33966Y46791D01*
X33904Y47173D01*
X33852Y47556D01*
X33810Y47940D01*
X33777Y48325D01*
X33753Y48711D01*
X33739Y49097D01*
X33734Y49484D01*
X376000Y250D02*
X377830Y272D01*
X379660Y338D01*
X381487Y449D01*
X383311Y604D01*
X385131Y802D01*
X386945Y1045D01*
X388753Y1331D01*
X390554Y1661D01*
X392346Y2035D01*
X394128Y2451D01*
X395900Y2911D01*
X397660Y3413D01*
X399408Y3957D01*
X401142Y4544D01*
X402861Y5173D01*
X404565Y5842D01*
X406252Y6553D01*
X407921Y7304D01*
X409572Y8096D01*
X411203Y8927D01*
X412813Y9797D01*
X414402Y10706D01*
X415969Y11653D01*
X417512Y12637D01*
X419031Y13659D01*
X420525Y14717D01*
X421993Y15811D01*
X423434Y16940D01*
X424847Y18103D01*
X426232Y19300D01*
X427587Y20531D01*
X428912Y21793D01*
X430207Y23088D01*
X431469Y24413D01*
X432700Y25768D01*
X433897Y27153D01*
X435060Y28566D01*
X436189Y30007D01*
X437283Y31475D01*
X438341Y32969D01*
X439363Y34488D01*
X440347Y36031D01*
X441294Y37598D01*
X442203Y39187D01*
X443073Y40797D01*
X443904Y42428D01*
X444696Y44079D01*
X445447Y45748D01*
X446158Y47435D01*
X446827Y49139D01*
X447456Y50858D01*
X448043Y52592D01*
X448587Y54340D01*
X449089Y56100D01*
X449549Y57872D01*
X449965Y59654D01*
X450339Y61446D01*
X450669Y63247D01*
X450955Y65055D01*
X451198Y66869D01*
X451396Y68689D01*
X451551Y70513D01*
X451662Y72340D01*
X451728Y74170D01*
X451750Y76000D01*
X451750Y276000D02*
X451728Y277830D01*
X451662Y279660D01*
X451551Y281487D01*
X451396Y283311D01*
X451198Y285131D01*
X450955Y286945D01*
X450669Y288753D01*
X450339Y290554D01*
X449965Y292346D01*
X449549Y294128D01*
X449089Y295900D01*
X448587Y297660D01*
X448043Y299408D01*
X447456Y301142D01*
X446827Y302861D01*
X446158Y304565D01*
X445447Y306252D01*
X444696Y307921D01*
X443904Y309572D01*
X443073Y311203D01*
X442203Y312813D01*
X441294Y314402D01*
X440347Y315969D01*
X439363Y317512D01*
X438341Y319031D01*
X437283Y320525D01*
X436189Y321993D01*
X435060Y323434D01*
X433897Y324847D01*
X432700Y326232D01*
X431469Y327587D01*
X430207Y328912D01*
X428912Y330207D01*
X427587Y331469D01*
X426232Y332700D01*
X424847Y333897D01*
X423434Y335060D01*
X421993Y336189D01*
X420525Y337283D01*
X419031Y338341D01*
X417512Y339363D01*
X415969Y340347D01*
X414402Y341294D01*
X412813Y342203D01*
X411203Y343073D01*
X409572Y343904D01*
X407921Y344696D01*
X406252Y345447D01*
X404565Y346158D01*
X402861Y346827D01*
X401142Y347456D01*
X399408Y348043D01*
X397660Y348587D01*
X395900Y349089D01*
X394128Y349549D01*
X392346Y349965D01*
X390554Y350339D01*
X388753Y350669D01*
X386945Y350955D01*
X385131Y351198D01*
X383311Y351396D01*
X381487Y351551D01*
X379660Y351662D01*
X377830Y351728D01*
X376000Y351750D01*
X291407Y313211D02*
X291094Y312868D01*
X290773Y312532D01*
X290444Y312204D01*
X290108Y311885D01*
X289764Y311573D01*
X289412Y311270D01*
X289053Y310975D01*
X288687Y310689D01*
X288315Y310412D01*
X287935Y310145D01*
X287550Y309886D01*
X287158Y309637D01*
X286761Y309397D01*
X286357Y309167D01*
X285949Y308946D01*
X285535Y308736D01*
X285116Y308536D01*
X284693Y308346D01*
X284265Y308166D01*
X283832Y307996D01*
X283396Y307837D01*
X282956Y307689D01*
X282513Y307551D01*
X282066Y307424D01*
X281617Y307307D01*
X281165Y307202D01*
X280710Y307107D01*
X280254Y307024D01*
X279795Y306951D01*
X279335Y306890D01*
X278873Y306840D01*
X278411Y306800D01*
X277947Y306772D01*
X277483Y306756D01*
X277019Y306750D01*
X174981Y306750D02*
X174517Y306756D01*
X174053Y306772D01*
X173589Y306800D01*
X173127Y306840D01*
X172665Y306890D01*
X172205Y306951D01*
X171746Y307024D01*
X171290Y307107D01*
X170835Y307202D01*
X170383Y307307D01*
X169934Y307424D01*
X169487Y307551D01*
X169044Y307689D01*
X168604Y307837D01*
X168168Y307996D01*
X167735Y308166D01*
X167307Y308346D01*
X166884Y308536D01*
X166465Y308736D01*
X166051Y308947D01*
X165643Y309167D01*
X165239Y309397D01*
X164842Y309637D01*
X164450Y309886D01*
X164065Y310145D01*
X163685Y310413D01*
X163313Y310689D01*
X162947Y310975D01*
X162588Y311270D01*
X162236Y311573D01*
X161892Y311885D01*
X161556Y312204D01*
X161227Y312532D01*
X160906Y312868D01*
X160593Y313211D01*
X76000Y351750D02*
X74170Y351728D01*
X72340Y351662D01*
X70513Y351551D01*
X68689Y351396D01*
X66869Y351198D01*
X65055Y350955D01*
X63247Y350669D01*
X61446Y350339D01*
X59654Y349965D01*
X57872Y349549D01*
X56100Y349089D01*
X54340Y348587D01*
X52592Y348043D01*
X50858Y347456D01*
X49139Y346827D01*
X47435Y346158D01*
X45748Y345447D01*
X44079Y344696D01*
X42428Y343904D01*
X40797Y343073D01*
X39187Y342203D01*
X37598Y341294D01*
X36031Y340347D01*
X34488Y339363D01*
X32969Y338341D01*
X31475Y337283D01*
X30007Y336189D01*
X28566Y335060D01*
X27153Y333897D01*
X25768Y332700D01*
X24413Y331469D01*
X23088Y330207D01*
X21793Y328912D01*
X20531Y327587D01*
X19300Y326232D01*
X18103Y324847D01*
X16940Y323434D01*
X15811Y321993D01*
X14717Y320525D01*
X13659Y319031D01*
X12637Y317512D01*
X11653Y315969D01*
X10706Y314402D01*
X9797Y312813D01*
X8927Y311203D01*
X8096Y309572D01*
X7304Y307921D01*
X6553Y306252D01*
X5842Y304565D01*
X5173Y302861D01*
X4544Y301142D01*
X3957Y299408D01*
X3413Y297660D01*
X2911Y295900D01*
X2451Y294128D01*
X2035Y292346D01*
X1661Y290554D01*
X1331Y288753D01*
X1045Y286945D01*
X802Y285131D01*
X604Y283311D01*
X449Y281487D01*
X338Y279660D01*
X272Y277830D01*
X250Y276000D01*
X250Y76000D02*
X272Y74170D01*
X338Y72340D01*
X449Y70513D01*
X604Y68689D01*
X802Y66869D01*
X1045Y65055D01*
X1331Y63247D01*
X1661Y61446D01*
X2035Y59654D01*
X2451Y57872D01*
X2911Y56100D01*
X3413Y54340D01*
X3957Y52592D01*
X4544Y50858D01*
X5173Y49139D01*
X5842Y47435D01*
X6553Y45748D01*
X7304Y44079D01*
X8096Y42428D01*
X8927Y40797D01*
X9797Y39187D01*
X10706Y37598D01*
X11653Y36031D01*
X12637Y34488D01*
X13659Y32969D01*
X14717Y31475D01*
X15811Y30007D01*
X16940Y28566D01*
X18103Y27153D01*
X19300Y25768D01*
X20531Y24413D01*
X21793Y23088D01*
X23088Y21793D01*
X24413Y20531D01*
X25768Y19300D01*
X27153Y18103D01*
X28566Y16940D01*
X30007Y15811D01*
X31475Y14717D01*
X32969Y13659D01*
X34488Y12637D01*
X36031Y11653D01*
X37598Y10706D01*
X39187Y9797D01*
X40797Y8927D01*
X42428Y8096D01*
X44079Y7304D01*
X45748Y6553D01*
X47435Y5842D01*
X49139Y5173D01*
X50858Y4544D01*
X52592Y3957D01*
X54340Y3413D01*
X56100Y2911D01*
X57872Y2451D01*
X59654Y2035D01*
X61446Y1661D01*
X63247Y1331D01*
X65055Y1045D01*
X66869Y802D01*
X68689Y604D01*
X70513Y449D01*
X72340Y338D01*
X74170Y272D01*
X76000Y250D01*
X160593Y38789D02*
X160906Y39132D01*
X161227Y39468D01*
X161556Y39796D01*
X161892Y40115D01*
X162236Y40427D01*
X162588Y40730D01*
X162947Y41025D01*
X163313Y41311D01*
X163685Y41588D01*
X164065Y41855D01*
X164450Y42114D01*
X164842Y42363D01*
X165239Y42603D01*
X165643Y42833D01*
X166051Y43054D01*
X166465Y43264D01*
X166884Y43464D01*
X167307Y43654D01*
X167735Y43834D01*
X168168Y44004D01*
X168604Y44163D01*
X169044Y44311D01*
X169487Y44449D01*
X169934Y44576D01*
X170383Y44693D01*
X170835Y44798D01*
X171290Y44893D01*
X171746Y44976D01*
X172205Y45049D01*
X172665Y45110D01*
X173127Y45160D01*
X173589Y45200D01*
X174053Y45228D01*
X174517Y45244D01*
X174981Y45250D01*
X277019Y45250D02*
X277483Y45244D01*
X277947Y45228D01*
X278411Y45200D01*
X278873Y45160D01*
X279335Y45110D01*
X279795Y45049D01*
X280254Y44976D01*
X280710Y44893D01*
X281165Y44798D01*
X281617Y44693D01*
X282066Y44576D01*
X282513Y44449D01*
X282956Y44311D01*
X283396Y44163D01*
X283832Y44004D01*
X284265Y43834D01*
X284693Y43654D01*
X285116Y43464D01*
X285535Y43264D01*
X285949Y43053D01*
X286357Y42833D01*
X286761Y42603D01*
X287158Y42363D01*
X287550Y42114D01*
X287935Y41855D01*
X288315Y41587D01*
X288687Y41311D01*
X289053Y41025D01*
X289412Y40730D01*
X289764Y40427D01*
X290108Y40115D01*
X290444Y39796D01*
X290773Y39468D01*
X291094Y39132D01*
X291407Y38789D01*
X325663Y250D02*
X376000Y250D01*
X451750Y76000D02*
X451750Y276000D01*
X376000Y351750D02*
X325663Y351750D01*
X291406Y313211D01*
X277019Y306750D02*
X174981Y306750D01*
X160594Y313211D02*
X126337Y351750D01*
X76000Y351750D01*
X250Y276000D02*
X250Y76000D01*
X76000Y250D02*
X126337Y250D01*
X160594Y38789D01*
X174981Y45250D02*
X277019Y45250D01*
X291406Y38789D02*
X325663Y250D01*
D11*
X418267Y48968D02*
X418267Y49999D01*
X418199Y51028D01*
X418064Y52050D01*
X417863Y53062D01*
X417596Y54058D01*
X417265Y55034D01*
X416870Y55987D01*
X416414Y56912D01*
X415899Y57805D01*
X415326Y58662D01*
X414698Y59481D01*
X414018Y60256D01*
X413289Y60985D01*
X412514Y61665D01*
X411695Y62293D01*
X410838Y62866D01*
X409945Y63381D01*
X409020Y63837D01*
X408067Y64232D01*
X407091Y64563D01*
X406095Y64830D01*
X405083Y65031D01*
X404061Y65166D01*
X403032Y65234D01*
X402001Y65234D01*
X400972Y65166D01*
X399950Y65031D01*
X398938Y64830D01*
X397942Y64563D01*
X396966Y64232D01*
X396013Y63837D01*
X395088Y63381D01*
X394195Y62866D01*
X393338Y62293D01*
X392519Y61665D01*
X391744Y60985D01*
X391015Y60256D01*
X390335Y59481D01*
X389707Y58662D01*
X389134Y57805D01*
X388619Y56912D01*
X388163Y55987D01*
X387768Y55034D01*
X387437Y54058D01*
X387170Y53062D01*
X386969Y52050D01*
X386834Y51028D01*
X386767Y49999D01*
X386767Y48968D01*
X386834Y47939D01*
X386969Y46917D01*
X387170Y45905D01*
X387437Y44909D01*
X387768Y43933D01*
X388163Y42980D01*
X388619Y42055D01*
X389134Y41162D01*
X389707Y40305D01*
X390335Y39486D01*
X391015Y38711D01*
X391744Y37982D01*
X392519Y37302D01*
X393338Y36674D01*
X394195Y36101D01*
X395088Y35586D01*
X396013Y35130D01*
X396966Y34735D01*
X397942Y34404D01*
X398938Y34137D01*
X399950Y33936D01*
X400972Y33801D01*
X402001Y33734D01*
X403032Y33734D01*
X404061Y33801D01*
X405083Y33936D01*
X406095Y34137D01*
X407091Y34404D01*
X408067Y34735D01*
X409020Y35130D01*
X409945Y35586D01*
X410838Y36101D01*
X411695Y36674D01*
X412514Y37302D01*
X413289Y37982D01*
X414018Y38711D01*
X414698Y39486D01*
X415326Y40305D01*
X415899Y41162D01*
X416414Y42055D01*
X416870Y42980D01*
X417265Y43933D01*
X417596Y44909D01*
X417863Y45905D01*
X418064Y46917D01*
X418199Y47939D01*
X418267Y48968D01*
X418267Y302001D02*
X418267Y303032D01*
X418199Y304061D01*
X418064Y305083D01*
X417863Y306095D01*
X417596Y307091D01*
X417265Y308067D01*
X416870Y309020D01*
X416414Y309945D01*
X415899Y310838D01*
X415326Y311695D01*
X414698Y312514D01*
X414018Y313289D01*
X413289Y314018D01*
X412514Y314698D01*
X411695Y315326D01*
X410838Y315899D01*
X409945Y316414D01*
X409020Y316870D01*
X408067Y317265D01*
X407091Y317596D01*
X406095Y317863D01*
X405083Y318064D01*
X404061Y318199D01*
X403032Y318267D01*
X402001Y318267D01*
X400972Y318199D01*
X399950Y318064D01*
X398938Y317863D01*
X397942Y317596D01*
X396966Y317265D01*
X396013Y316870D01*
X395088Y316414D01*
X394195Y315899D01*
X393338Y315326D01*
X392519Y314698D01*
X391744Y314018D01*
X391015Y313289D01*
X390335Y312514D01*
X389707Y311695D01*
X389134Y310838D01*
X388619Y309945D01*
X388163Y309020D01*
X387768Y308067D01*
X387437Y307091D01*
X387170Y306095D01*
X386969Y305083D01*
X386834Y304061D01*
X386767Y303032D01*
X386767Y302001D01*
X386834Y300972D01*
X386969Y299950D01*
X387170Y298938D01*
X387437Y297942D01*
X387768Y296966D01*
X388163Y296013D01*
X388619Y295088D01*
X389134Y294195D01*
X389707Y293338D01*
X390335Y292519D01*
X391015Y291744D01*
X391744Y291015D01*
X392519Y290335D01*
X393338Y289707D01*
X394195Y289134D01*
X395088Y288619D01*
X396013Y288163D01*
X396966Y287768D01*
X397942Y287437D01*
X398938Y287170D01*
X399950Y286969D01*
X400972Y286834D01*
X402001Y286767D01*
X403032Y286767D01*
X404061Y286834D01*
X405083Y286969D01*
X406095Y287170D01*
X407091Y287437D01*
X408067Y287768D01*
X409020Y288163D01*
X409945Y288619D01*
X410838Y289134D01*
X411695Y289707D01*
X412514Y290335D01*
X413289Y291015D01*
X414018Y291744D01*
X414698Y292519D01*
X415326Y293338D01*
X415899Y294195D01*
X416414Y295088D01*
X416870Y296013D01*
X417265Y296966D01*
X417596Y297942D01*
X417863Y298938D01*
X418064Y299950D01*
X418199Y300972D01*
X418267Y302001D01*
X65234Y302001D02*
X65234Y303032D01*
X65166Y304061D01*
X65031Y305083D01*
X64830Y306095D01*
X64563Y307091D01*
X64232Y308067D01*
X63837Y309020D01*
X63381Y309945D01*
X62866Y310838D01*
X62293Y311695D01*
X61665Y312514D01*
X60985Y313289D01*
X60256Y314018D01*
X59481Y314698D01*
X58662Y315326D01*
X57805Y315899D01*
X56912Y316414D01*
X55987Y316870D01*
X55034Y317265D01*
X54058Y317596D01*
X53062Y317863D01*
X52050Y318064D01*
X51028Y318199D01*
X49999Y318267D01*
X48968Y318267D01*
X47939Y318199D01*
X46917Y318064D01*
X45905Y317863D01*
X44909Y317596D01*
X43933Y317265D01*
X42980Y316870D01*
X42055Y316414D01*
X41162Y315899D01*
X40305Y315326D01*
X39486Y314698D01*
X38711Y314018D01*
X37982Y313289D01*
X37302Y312514D01*
X36674Y311695D01*
X36101Y310838D01*
X35586Y309945D01*
X35130Y309020D01*
X34735Y308067D01*
X34404Y307091D01*
X34137Y306095D01*
X33936Y305083D01*
X33801Y304061D01*
X33734Y303032D01*
X33734Y302001D01*
X33801Y300972D01*
X33936Y299950D01*
X34137Y298938D01*
X34404Y297942D01*
X34735Y296966D01*
X35130Y296013D01*
X35586Y295088D01*
X36101Y294195D01*
X36674Y293338D01*
X37302Y292519D01*
X37982Y291744D01*
X38711Y291015D01*
X39486Y290335D01*
X40305Y289707D01*
X41162Y289134D01*
X42055Y288619D01*
X42980Y288163D01*
X43933Y287768D01*
X44909Y287437D01*
X45905Y287170D01*
X46917Y286969D01*
X47939Y286834D01*
X48968Y286767D01*
X49999Y286767D01*
X51028Y286834D01*
X52050Y286969D01*
X53062Y287170D01*
X54058Y287437D01*
X55034Y287768D01*
X55987Y288163D01*
X56912Y288619D01*
X57805Y289134D01*
X58662Y289707D01*
X59481Y290335D01*
X60256Y291015D01*
X60985Y291744D01*
X61665Y292519D01*
X62293Y293338D01*
X62866Y294195D01*
X63381Y295088D01*
X63837Y296013D01*
X64232Y296966D01*
X64563Y297942D01*
X64830Y298938D01*
X65031Y299950D01*
X65166Y300972D01*
X65234Y302001D01*
X65234Y48968D02*
X65234Y49999D01*
X65166Y51028D01*
X65031Y52050D01*
X64830Y53062D01*
X64563Y54058D01*
X64232Y55034D01*
X63837Y55987D01*
X63381Y56912D01*
X62866Y57805D01*
X62293Y58662D01*
X61665Y59481D01*
X60985Y60256D01*
X60256Y60985D01*
X59481Y61665D01*
X58662Y62293D01*
X57805Y62866D01*
X56912Y63381D01*
X55987Y63837D01*
X55034Y64232D01*
X54058Y64563D01*
X53062Y64830D01*
X52050Y65031D01*
X51028Y65166D01*
X49999Y65234D01*
X48968Y65234D01*
X47939Y65166D01*
X46917Y65031D01*
X45905Y64830D01*
X44909Y64563D01*
X43933Y64232D01*
X42980Y63837D01*
X42055Y63381D01*
X41162Y62866D01*
X40305Y62293D01*
X39486Y61665D01*
X38711Y60985D01*
X37982Y60256D01*
X37302Y59481D01*
X36674Y58662D01*
X36101Y57805D01*
X35586Y56912D01*
X35130Y55987D01*
X34735Y55034D01*
X34404Y54058D01*
X34137Y53062D01*
X33936Y52050D01*
X33801Y51028D01*
X33734Y49999D01*
X33734Y48968D01*
X33801Y47939D01*
X33936Y46917D01*
X34137Y45905D01*
X34404Y44909D01*
X34735Y43933D01*
X35130Y42980D01*
X35586Y42055D01*
X36101Y41162D01*
X36674Y40305D01*
X37302Y39486D01*
X37982Y38711D01*
X38711Y37982D01*
X39486Y37302D01*
X40305Y36674D01*
X41162Y36101D01*
X42055Y35586D01*
X42980Y35130D01*
X43933Y34735D01*
X44909Y34404D01*
X45905Y34137D01*
X46917Y33936D01*
X47939Y33801D01*
X48968Y33734D01*
X49999Y33734D01*
X51028Y33801D01*
X52050Y33936D01*
X53062Y34137D01*
X54058Y34404D01*
X55034Y34735D01*
X55987Y35130D01*
X56912Y35586D01*
X57805Y36101D01*
X58662Y36674D01*
X59481Y37302D01*
X60256Y37982D01*
X60985Y38711D01*
X61665Y39486D01*
X62293Y40305D01*
X62866Y41162D01*
X63381Y42055D01*
X63837Y42980D01*
X64232Y43933D01*
X64563Y44909D01*
X64830Y45905D01*
X65031Y46917D01*
X65166Y47939D01*
X65234Y48968D01*
X45964Y211500D02*
X44896Y211424D01*
X43835Y211271D01*
X42788Y211043D01*
X41760Y210741D01*
X40756Y210367D01*
X39781Y209922D01*
X38841Y209408D01*
X37940Y208829D01*
X37082Y208187D01*
X36272Y207485D01*
X35515Y206728D01*
X34813Y205918D01*
X34171Y205060D01*
X33592Y204159D01*
X33078Y203219D01*
X32633Y202244D01*
X32259Y201240D01*
X31957Y200212D01*
X31729Y199165D01*
X31576Y198104D01*
X31500Y197036D01*
X31500Y195964D01*
X31576Y194896D01*
X31729Y193835D01*
X31957Y192788D01*
X32259Y191760D01*
X32633Y190756D01*
X33078Y189781D01*
X33592Y188841D01*
X34171Y187940D01*
X34813Y187082D01*
X35515Y186272D01*
X36272Y185515D01*
X37082Y184813D01*
X37940Y184171D01*
X38841Y183592D01*
X39781Y183078D01*
X40756Y182633D01*
X41760Y182259D01*
X42788Y181957D01*
X43835Y181729D01*
X44896Y181576D01*
X45964Y181500D01*
X47036Y181500D01*
X48104Y181576D01*
X49165Y181729D01*
X50212Y181957D01*
X51240Y182259D01*
X52244Y182633D01*
X53219Y183078D01*
X54159Y183592D01*
X55060Y184171D01*
X55918Y184813D01*
X56728Y185515D01*
X57485Y186272D01*
X58187Y187082D01*
X58829Y187940D01*
X59408Y188841D01*
X59922Y189781D01*
X60367Y190756D01*
X60741Y191760D01*
X61043Y192788D01*
X61271Y193835D01*
X61424Y194896D01*
X61500Y195964D01*
X61500Y197036D01*
X61424Y198104D01*
X61271Y199165D01*
X61043Y200212D01*
X60741Y201240D01*
X60367Y202244D01*
X59922Y203219D01*
X59408Y204159D01*
X58829Y205060D01*
X58187Y205918D01*
X57485Y206728D01*
X56728Y207485D01*
X55918Y208187D01*
X55060Y208829D01*
X54159Y209408D01*
X53219Y209922D01*
X52244Y210367D01*
X51240Y210741D01*
X50212Y211043D01*
X49165Y211271D01*
X48104Y211424D01*
X47036Y211500D01*
X45964Y211500D01*
X45964Y164500D02*
X44896Y164424D01*
X43835Y164271D01*
X42788Y164043D01*
X41760Y163741D01*
X40756Y163367D01*
X39781Y162922D01*
X38841Y162408D01*
X37940Y161829D01*
X37082Y161187D01*
X36272Y160485D01*
X35515Y159728D01*
X34813Y158918D01*
X34171Y158060D01*
X33592Y157159D01*
X33078Y156219D01*
X32633Y155244D01*
X32259Y154240D01*
X31957Y153212D01*
X31729Y152165D01*
X31576Y151104D01*
X31500Y150036D01*
X31500Y148964D01*
X31576Y147896D01*
X31729Y146835D01*
X31957Y145788D01*
X32259Y144760D01*
X32633Y143756D01*
X33078Y142781D01*
X33592Y141841D01*
X34171Y140940D01*
X34813Y140082D01*
X35515Y139272D01*
X36272Y138515D01*
X37082Y137813D01*
X37940Y137171D01*
X38841Y136592D01*
X39781Y136078D01*
X40756Y135633D01*
X41760Y135259D01*
X42788Y134957D01*
X43835Y134729D01*
X44896Y134576D01*
X45964Y134500D01*
X47036Y134500D01*
X48104Y134576D01*
X49165Y134729D01*
X50212Y134957D01*
X51240Y135259D01*
X52244Y135633D01*
X53219Y136078D01*
X54159Y136592D01*
X55060Y137171D01*
X55918Y137813D01*
X56728Y138515D01*
X57485Y139272D01*
X58187Y140082D01*
X58829Y140940D01*
X59408Y141841D01*
X59922Y142781D01*
X60367Y143756D01*
X60741Y144760D01*
X61043Y145788D01*
X61271Y146835D01*
X61424Y147896D01*
X61500Y148964D01*
X61500Y150036D01*
X61424Y151104D01*
X61271Y152165D01*
X61043Y153212D01*
X60741Y154240D01*
X60367Y155244D01*
X59922Y156219D01*
X59408Y157159D01*
X58829Y158060D01*
X58187Y158918D01*
X57485Y159728D01*
X56728Y160485D01*
X55918Y161187D01*
X55060Y161829D01*
X54159Y162408D01*
X53219Y162922D01*
X52244Y163367D01*
X51240Y163741D01*
X50212Y164043D01*
X49165Y164271D01*
X48104Y164424D01*
X47036Y164500D01*
X45964Y164500D01*
M02*
