G04 EAGLE Gerber X2 export*
G75*
%MOMM*%
%FSLAX34Y34*%
%LPD*%
%AMOC8*
5,1,8,0,0,1.08239X$1,22.5*%
G01*
%ADD10C,1.158000*%
%ADD11C,1.530000*%
%ADD12C,1.524000*%
%ADD13C,0.906400*%
%ADD14C,1.270000*%


D10*
X198900Y213700D03*
X198900Y188300D03*
X198900Y162900D03*
X198900Y137500D03*
X122700Y137500D03*
X122700Y162900D03*
X122700Y188300D03*
X122700Y213700D03*
D11*
X89700Y218000D03*
X89700Y188000D03*
X89700Y158000D03*
X89700Y128000D03*
D12*
X227550Y103700D03*
X252950Y103700D03*
X278350Y103700D03*
X303750Y103700D03*
X329150Y103700D03*
D13*
X248920Y231140D03*
D14*
X227550Y209770D02*
X227550Y103700D01*
X227550Y209770D02*
X248920Y231140D01*
X227550Y115790D02*
X227550Y103700D01*
X227550Y115790D02*
X246380Y134620D01*
X332740Y134620D01*
X345440Y121920D01*
D13*
X347980Y78740D03*
D14*
X347980Y119380D02*
X347978Y119480D01*
X347972Y119579D01*
X347962Y119679D01*
X347949Y119777D01*
X347931Y119876D01*
X347910Y119973D01*
X347885Y120069D01*
X347856Y120165D01*
X347823Y120259D01*
X347787Y120352D01*
X347747Y120443D01*
X347703Y120533D01*
X347656Y120621D01*
X347606Y120707D01*
X347552Y120791D01*
X347495Y120873D01*
X347435Y120952D01*
X347371Y121030D01*
X347305Y121104D01*
X347236Y121176D01*
X347164Y121245D01*
X347090Y121311D01*
X347012Y121375D01*
X346933Y121435D01*
X346851Y121492D01*
X346767Y121546D01*
X346681Y121596D01*
X346593Y121643D01*
X346503Y121687D01*
X346412Y121727D01*
X346319Y121763D01*
X346225Y121796D01*
X346129Y121825D01*
X346033Y121850D01*
X345936Y121871D01*
X345837Y121889D01*
X345739Y121902D01*
X345639Y121912D01*
X345540Y121918D01*
X345440Y121920D01*
X347980Y119380D02*
X347980Y78740D01*
X107920Y236220D02*
X89700Y218000D01*
X127000Y236220D02*
X142240Y220980D01*
X142240Y88900D02*
X165100Y66040D01*
X266700Y66040D01*
X303750Y103090D01*
X303750Y103700D01*
X127000Y236220D02*
X107920Y236220D01*
X142240Y220980D02*
X142240Y88900D01*
M02*
