G04 EAGLE Gerber X2 export*
G75*
%MOMM*%
%FSLAX34Y34*%
%LPD*%
%AMOC8*
5,1,8,0,0,1.08239X$1,22.5*%
G01*
%ADD10R,0.900000X0.800000*%
%ADD11R,1.300000X1.500000*%
%ADD12R,1.500000X1.300000*%
%ADD13C,1.158000*%
%ADD14R,2.400000X1.600000*%
%ADD15R,2.184400X1.066800*%
%ADD16R,1.270000X0.635000*%
%ADD17C,1.530000*%
%ADD18R,1.600000X2.400000*%
%ADD19R,1.066800X2.184400*%
%ADD20R,0.635000X1.270000*%
%ADD21C,1.524000*%
%ADD22C,1.270000*%
%ADD23C,0.906400*%
%ADD24C,0.812800*%
%ADD25C,0.508000*%

G36*
X36565Y87377D02*
X36565Y87377D01*
X36631Y87379D01*
X36674Y87397D01*
X36721Y87405D01*
X36778Y87439D01*
X36838Y87464D01*
X36873Y87495D01*
X36914Y87520D01*
X36956Y87571D01*
X37004Y87615D01*
X37026Y87657D01*
X37055Y87694D01*
X37076Y87756D01*
X37107Y87815D01*
X37115Y87869D01*
X37127Y87906D01*
X37126Y87946D01*
X37134Y88000D01*
X37134Y96866D01*
X39500Y96866D01*
X39565Y96877D01*
X39631Y96879D01*
X39674Y96897D01*
X39721Y96905D01*
X39778Y96939D01*
X39838Y96964D01*
X39873Y96995D01*
X39914Y97020D01*
X39956Y97071D01*
X40004Y97115D01*
X40026Y97157D01*
X40055Y97194D01*
X40076Y97256D01*
X40107Y97315D01*
X40115Y97369D01*
X40127Y97406D01*
X40127Y97419D01*
X40127Y97420D01*
X40126Y97448D01*
X40134Y97500D01*
X40134Y102500D01*
X40123Y102565D01*
X40121Y102631D01*
X40103Y102674D01*
X40095Y102721D01*
X40061Y102778D01*
X40036Y102838D01*
X40005Y102873D01*
X39980Y102914D01*
X39929Y102956D01*
X39885Y103004D01*
X39843Y103026D01*
X39806Y103055D01*
X39744Y103076D01*
X39685Y103107D01*
X39631Y103115D01*
X39594Y103127D01*
X39554Y103126D01*
X39500Y103134D01*
X37134Y103134D01*
X37134Y112000D01*
X37123Y112065D01*
X37121Y112131D01*
X37103Y112174D01*
X37095Y112221D01*
X37061Y112278D01*
X37036Y112338D01*
X37005Y112373D01*
X36980Y112414D01*
X36929Y112456D01*
X36885Y112504D01*
X36843Y112526D01*
X36806Y112555D01*
X36744Y112576D01*
X36685Y112607D01*
X36631Y112615D01*
X36594Y112627D01*
X36554Y112626D01*
X36500Y112634D01*
X30500Y112634D01*
X30435Y112623D01*
X30369Y112621D01*
X30326Y112603D01*
X30279Y112595D01*
X30222Y112561D01*
X30162Y112536D01*
X30127Y112505D01*
X30086Y112480D01*
X30045Y112429D01*
X29996Y112385D01*
X29974Y112343D01*
X29945Y112306D01*
X29924Y112244D01*
X29893Y112185D01*
X29885Y112131D01*
X29873Y112094D01*
X29874Y112054D01*
X29866Y112000D01*
X29866Y88000D01*
X29877Y87935D01*
X29879Y87869D01*
X29897Y87826D01*
X29905Y87779D01*
X29939Y87722D01*
X29964Y87662D01*
X29995Y87627D01*
X30020Y87586D01*
X30071Y87545D01*
X30115Y87496D01*
X30157Y87474D01*
X30194Y87445D01*
X30256Y87424D01*
X30315Y87393D01*
X30369Y87385D01*
X30406Y87373D01*
X30446Y87374D01*
X30500Y87366D01*
X36500Y87366D01*
X36565Y87377D01*
G37*
G36*
X36565Y239127D02*
X36565Y239127D01*
X36631Y239129D01*
X36674Y239147D01*
X36721Y239155D01*
X36778Y239189D01*
X36838Y239214D01*
X36873Y239245D01*
X36914Y239270D01*
X36956Y239321D01*
X37004Y239365D01*
X37026Y239407D01*
X37055Y239444D01*
X37076Y239506D01*
X37107Y239565D01*
X37115Y239619D01*
X37127Y239656D01*
X37126Y239696D01*
X37134Y239750D01*
X37134Y248616D01*
X39500Y248616D01*
X39565Y248627D01*
X39631Y248629D01*
X39674Y248647D01*
X39721Y248655D01*
X39778Y248689D01*
X39838Y248714D01*
X39873Y248745D01*
X39914Y248770D01*
X39956Y248821D01*
X40004Y248865D01*
X40026Y248907D01*
X40055Y248944D01*
X40076Y249006D01*
X40107Y249065D01*
X40115Y249119D01*
X40127Y249156D01*
X40127Y249169D01*
X40127Y249170D01*
X40126Y249198D01*
X40134Y249250D01*
X40134Y254250D01*
X40123Y254315D01*
X40121Y254381D01*
X40103Y254424D01*
X40095Y254471D01*
X40061Y254528D01*
X40036Y254588D01*
X40005Y254623D01*
X39980Y254664D01*
X39929Y254706D01*
X39885Y254754D01*
X39843Y254776D01*
X39806Y254805D01*
X39744Y254826D01*
X39685Y254857D01*
X39631Y254865D01*
X39594Y254877D01*
X39554Y254876D01*
X39500Y254884D01*
X37134Y254884D01*
X37134Y263750D01*
X37123Y263815D01*
X37121Y263881D01*
X37103Y263924D01*
X37095Y263971D01*
X37061Y264028D01*
X37036Y264088D01*
X37005Y264123D01*
X36980Y264164D01*
X36929Y264206D01*
X36885Y264254D01*
X36843Y264276D01*
X36806Y264305D01*
X36744Y264326D01*
X36685Y264357D01*
X36631Y264365D01*
X36594Y264377D01*
X36554Y264376D01*
X36500Y264384D01*
X30500Y264384D01*
X30435Y264373D01*
X30369Y264371D01*
X30326Y264353D01*
X30279Y264345D01*
X30222Y264311D01*
X30162Y264286D01*
X30127Y264255D01*
X30086Y264230D01*
X30045Y264179D01*
X29996Y264135D01*
X29974Y264093D01*
X29945Y264056D01*
X29924Y263994D01*
X29893Y263935D01*
X29885Y263881D01*
X29873Y263844D01*
X29874Y263804D01*
X29866Y263750D01*
X29866Y239750D01*
X29877Y239685D01*
X29879Y239619D01*
X29897Y239576D01*
X29905Y239529D01*
X29939Y239472D01*
X29964Y239412D01*
X29995Y239377D01*
X30020Y239336D01*
X30071Y239295D01*
X30115Y239246D01*
X30157Y239224D01*
X30194Y239195D01*
X30256Y239174D01*
X30315Y239143D01*
X30369Y239135D01*
X30406Y239123D01*
X30446Y239124D01*
X30500Y239116D01*
X36500Y239116D01*
X36565Y239127D01*
G37*
G36*
X274315Y269127D02*
X274315Y269127D01*
X274381Y269129D01*
X274424Y269147D01*
X274471Y269155D01*
X274528Y269189D01*
X274588Y269214D01*
X274623Y269245D01*
X274664Y269270D01*
X274706Y269321D01*
X274754Y269365D01*
X274776Y269407D01*
X274805Y269444D01*
X274826Y269506D01*
X274857Y269565D01*
X274865Y269619D01*
X274877Y269656D01*
X274876Y269696D01*
X274884Y269750D01*
X274884Y272116D01*
X283750Y272116D01*
X283815Y272127D01*
X283881Y272129D01*
X283924Y272147D01*
X283971Y272155D01*
X284028Y272189D01*
X284088Y272214D01*
X284123Y272245D01*
X284164Y272270D01*
X284206Y272321D01*
X284254Y272365D01*
X284276Y272407D01*
X284305Y272444D01*
X284326Y272506D01*
X284357Y272565D01*
X284365Y272619D01*
X284377Y272656D01*
X284376Y272696D01*
X284384Y272750D01*
X284384Y278750D01*
X284373Y278815D01*
X284371Y278881D01*
X284353Y278924D01*
X284345Y278971D01*
X284311Y279028D01*
X284286Y279088D01*
X284255Y279123D01*
X284230Y279164D01*
X284179Y279206D01*
X284135Y279254D01*
X284093Y279276D01*
X284056Y279305D01*
X283994Y279326D01*
X283935Y279357D01*
X283881Y279365D01*
X283844Y279377D01*
X283804Y279376D01*
X283750Y279384D01*
X259750Y279384D01*
X259685Y279373D01*
X259619Y279371D01*
X259576Y279353D01*
X259529Y279345D01*
X259472Y279311D01*
X259412Y279286D01*
X259377Y279255D01*
X259336Y279230D01*
X259295Y279179D01*
X259246Y279135D01*
X259224Y279093D01*
X259195Y279056D01*
X259174Y278994D01*
X259143Y278935D01*
X259135Y278881D01*
X259123Y278844D01*
X259124Y278804D01*
X259116Y278750D01*
X259116Y272750D01*
X259127Y272685D01*
X259129Y272619D01*
X259147Y272576D01*
X259155Y272529D01*
X259189Y272472D01*
X259214Y272412D01*
X259245Y272377D01*
X259270Y272336D01*
X259321Y272295D01*
X259365Y272246D01*
X259407Y272224D01*
X259444Y272195D01*
X259506Y272174D01*
X259565Y272143D01*
X259619Y272135D01*
X259656Y272123D01*
X259696Y272124D01*
X259750Y272116D01*
X268616Y272116D01*
X268616Y269750D01*
X268627Y269685D01*
X268629Y269619D01*
X268647Y269576D01*
X268655Y269529D01*
X268689Y269472D01*
X268714Y269412D01*
X268745Y269377D01*
X268770Y269336D01*
X268821Y269295D01*
X268865Y269246D01*
X268907Y269224D01*
X268944Y269195D01*
X269006Y269174D01*
X269065Y269143D01*
X269119Y269135D01*
X269156Y269123D01*
X269196Y269124D01*
X269250Y269116D01*
X274250Y269116D01*
X274315Y269127D01*
G37*
G36*
X228440Y269127D02*
X228440Y269127D01*
X228506Y269129D01*
X228549Y269147D01*
X228596Y269155D01*
X228653Y269189D01*
X228713Y269214D01*
X228748Y269245D01*
X228789Y269270D01*
X228831Y269321D01*
X228879Y269365D01*
X228901Y269407D01*
X228930Y269444D01*
X228951Y269506D01*
X228982Y269565D01*
X228990Y269619D01*
X229002Y269656D01*
X229001Y269696D01*
X229009Y269750D01*
X229009Y272116D01*
X237875Y272116D01*
X237940Y272127D01*
X238006Y272129D01*
X238049Y272147D01*
X238096Y272155D01*
X238153Y272189D01*
X238213Y272214D01*
X238248Y272245D01*
X238289Y272270D01*
X238331Y272321D01*
X238379Y272365D01*
X238401Y272407D01*
X238430Y272444D01*
X238451Y272506D01*
X238482Y272565D01*
X238490Y272619D01*
X238502Y272656D01*
X238501Y272696D01*
X238509Y272750D01*
X238509Y278750D01*
X238498Y278815D01*
X238496Y278881D01*
X238478Y278924D01*
X238470Y278971D01*
X238436Y279028D01*
X238411Y279088D01*
X238380Y279123D01*
X238355Y279164D01*
X238304Y279206D01*
X238260Y279254D01*
X238218Y279276D01*
X238181Y279305D01*
X238119Y279326D01*
X238060Y279357D01*
X238006Y279365D01*
X237969Y279377D01*
X237929Y279376D01*
X237875Y279384D01*
X213875Y279384D01*
X213810Y279373D01*
X213744Y279371D01*
X213701Y279353D01*
X213654Y279345D01*
X213597Y279311D01*
X213537Y279286D01*
X213502Y279255D01*
X213461Y279230D01*
X213420Y279179D01*
X213371Y279135D01*
X213349Y279093D01*
X213320Y279056D01*
X213299Y278994D01*
X213268Y278935D01*
X213260Y278881D01*
X213248Y278844D01*
X213249Y278804D01*
X213241Y278750D01*
X213241Y272750D01*
X213252Y272685D01*
X213254Y272619D01*
X213272Y272576D01*
X213280Y272529D01*
X213314Y272472D01*
X213339Y272412D01*
X213370Y272377D01*
X213395Y272336D01*
X213446Y272295D01*
X213490Y272246D01*
X213532Y272224D01*
X213569Y272195D01*
X213631Y272174D01*
X213690Y272143D01*
X213744Y272135D01*
X213781Y272123D01*
X213821Y272124D01*
X213875Y272116D01*
X222741Y272116D01*
X222741Y269750D01*
X222752Y269685D01*
X222754Y269619D01*
X222772Y269576D01*
X222780Y269529D01*
X222814Y269472D01*
X222839Y269412D01*
X222870Y269377D01*
X222895Y269336D01*
X222946Y269295D01*
X222990Y269246D01*
X223032Y269224D01*
X223069Y269195D01*
X223131Y269174D01*
X223190Y269143D01*
X223244Y269135D01*
X223281Y269123D01*
X223321Y269124D01*
X223375Y269116D01*
X228375Y269116D01*
X228440Y269127D01*
G37*
G36*
X421315Y239127D02*
X421315Y239127D01*
X421381Y239129D01*
X421424Y239147D01*
X421471Y239155D01*
X421528Y239189D01*
X421588Y239214D01*
X421623Y239245D01*
X421664Y239270D01*
X421706Y239321D01*
X421754Y239365D01*
X421776Y239407D01*
X421805Y239444D01*
X421826Y239506D01*
X421857Y239565D01*
X421865Y239619D01*
X421877Y239656D01*
X421876Y239696D01*
X421884Y239750D01*
X421884Y263750D01*
X421873Y263815D01*
X421871Y263881D01*
X421853Y263924D01*
X421845Y263971D01*
X421811Y264028D01*
X421786Y264088D01*
X421755Y264123D01*
X421730Y264164D01*
X421679Y264206D01*
X421635Y264254D01*
X421593Y264276D01*
X421556Y264305D01*
X421494Y264326D01*
X421435Y264357D01*
X421381Y264365D01*
X421344Y264377D01*
X421304Y264376D01*
X421250Y264384D01*
X415250Y264384D01*
X415185Y264373D01*
X415119Y264371D01*
X415076Y264353D01*
X415029Y264345D01*
X414972Y264311D01*
X414912Y264286D01*
X414877Y264255D01*
X414836Y264230D01*
X414795Y264179D01*
X414746Y264135D01*
X414724Y264093D01*
X414695Y264056D01*
X414674Y263994D01*
X414643Y263935D01*
X414635Y263881D01*
X414623Y263844D01*
X414624Y263804D01*
X414616Y263750D01*
X414616Y254884D01*
X412250Y254884D01*
X412185Y254873D01*
X412119Y254871D01*
X412076Y254853D01*
X412029Y254845D01*
X411972Y254811D01*
X411912Y254786D01*
X411877Y254755D01*
X411836Y254730D01*
X411795Y254679D01*
X411746Y254635D01*
X411724Y254593D01*
X411695Y254556D01*
X411674Y254494D01*
X411643Y254435D01*
X411635Y254381D01*
X411623Y254344D01*
X411624Y254304D01*
X411616Y254250D01*
X411616Y249250D01*
X411627Y249185D01*
X411629Y249119D01*
X411647Y249076D01*
X411655Y249029D01*
X411689Y248972D01*
X411714Y248912D01*
X411745Y248877D01*
X411770Y248836D01*
X411821Y248795D01*
X411865Y248746D01*
X411907Y248724D01*
X411944Y248695D01*
X412006Y248674D01*
X412065Y248643D01*
X412119Y248635D01*
X412156Y248623D01*
X412196Y248624D01*
X412250Y248616D01*
X414616Y248616D01*
X414616Y239750D01*
X414627Y239685D01*
X414629Y239619D01*
X414647Y239576D01*
X414655Y239529D01*
X414689Y239472D01*
X414714Y239412D01*
X414745Y239377D01*
X414770Y239336D01*
X414821Y239295D01*
X414865Y239246D01*
X414907Y239224D01*
X414944Y239195D01*
X415006Y239174D01*
X415065Y239143D01*
X415119Y239135D01*
X415156Y239123D01*
X415196Y239124D01*
X415250Y239116D01*
X421250Y239116D01*
X421315Y239127D01*
G37*
G36*
X182565Y269127D02*
X182565Y269127D01*
X182631Y269129D01*
X182674Y269147D01*
X182721Y269155D01*
X182778Y269189D01*
X182838Y269214D01*
X182873Y269245D01*
X182914Y269270D01*
X182956Y269321D01*
X183004Y269365D01*
X183026Y269407D01*
X183055Y269444D01*
X183076Y269506D01*
X183107Y269565D01*
X183115Y269619D01*
X183127Y269656D01*
X183126Y269696D01*
X183134Y269750D01*
X183134Y272116D01*
X192000Y272116D01*
X192065Y272127D01*
X192131Y272129D01*
X192174Y272147D01*
X192221Y272155D01*
X192278Y272189D01*
X192338Y272214D01*
X192373Y272245D01*
X192414Y272270D01*
X192456Y272321D01*
X192504Y272365D01*
X192526Y272407D01*
X192555Y272444D01*
X192576Y272506D01*
X192607Y272565D01*
X192615Y272619D01*
X192627Y272656D01*
X192626Y272696D01*
X192634Y272750D01*
X192634Y278750D01*
X192623Y278815D01*
X192621Y278881D01*
X192603Y278924D01*
X192595Y278971D01*
X192561Y279028D01*
X192536Y279088D01*
X192505Y279123D01*
X192480Y279164D01*
X192429Y279206D01*
X192385Y279254D01*
X192343Y279276D01*
X192306Y279305D01*
X192244Y279326D01*
X192185Y279357D01*
X192131Y279365D01*
X192094Y279377D01*
X192054Y279376D01*
X192000Y279384D01*
X168000Y279384D01*
X167935Y279373D01*
X167869Y279371D01*
X167826Y279353D01*
X167779Y279345D01*
X167722Y279311D01*
X167662Y279286D01*
X167627Y279255D01*
X167586Y279230D01*
X167545Y279179D01*
X167496Y279135D01*
X167474Y279093D01*
X167445Y279056D01*
X167424Y278994D01*
X167393Y278935D01*
X167385Y278881D01*
X167373Y278844D01*
X167374Y278804D01*
X167366Y278750D01*
X167366Y272750D01*
X167377Y272685D01*
X167379Y272619D01*
X167397Y272576D01*
X167405Y272529D01*
X167439Y272472D01*
X167464Y272412D01*
X167495Y272377D01*
X167520Y272336D01*
X167571Y272295D01*
X167615Y272246D01*
X167657Y272224D01*
X167694Y272195D01*
X167756Y272174D01*
X167815Y272143D01*
X167869Y272135D01*
X167906Y272123D01*
X167946Y272124D01*
X168000Y272116D01*
X176866Y272116D01*
X176866Y269750D01*
X176877Y269685D01*
X176879Y269619D01*
X176897Y269576D01*
X176905Y269529D01*
X176939Y269472D01*
X176964Y269412D01*
X176995Y269377D01*
X177020Y269336D01*
X177071Y269295D01*
X177115Y269246D01*
X177157Y269224D01*
X177194Y269195D01*
X177256Y269174D01*
X177315Y269143D01*
X177369Y269135D01*
X177406Y269123D01*
X177446Y269124D01*
X177500Y269116D01*
X182500Y269116D01*
X182565Y269127D01*
G37*
G36*
X421315Y87377D02*
X421315Y87377D01*
X421381Y87379D01*
X421424Y87397D01*
X421471Y87405D01*
X421528Y87439D01*
X421588Y87464D01*
X421623Y87495D01*
X421664Y87520D01*
X421706Y87571D01*
X421754Y87615D01*
X421776Y87657D01*
X421805Y87694D01*
X421826Y87756D01*
X421857Y87815D01*
X421865Y87869D01*
X421877Y87906D01*
X421876Y87946D01*
X421884Y88000D01*
X421884Y112000D01*
X421873Y112065D01*
X421871Y112131D01*
X421853Y112174D01*
X421845Y112221D01*
X421811Y112278D01*
X421786Y112338D01*
X421755Y112373D01*
X421730Y112414D01*
X421679Y112456D01*
X421635Y112504D01*
X421593Y112526D01*
X421556Y112555D01*
X421494Y112576D01*
X421435Y112607D01*
X421381Y112615D01*
X421344Y112627D01*
X421304Y112626D01*
X421250Y112634D01*
X415250Y112634D01*
X415185Y112623D01*
X415119Y112621D01*
X415076Y112603D01*
X415029Y112595D01*
X414972Y112561D01*
X414912Y112536D01*
X414877Y112505D01*
X414836Y112480D01*
X414795Y112429D01*
X414746Y112385D01*
X414724Y112343D01*
X414695Y112306D01*
X414674Y112244D01*
X414643Y112185D01*
X414635Y112131D01*
X414623Y112094D01*
X414624Y112054D01*
X414616Y112000D01*
X414616Y103134D01*
X412250Y103134D01*
X412185Y103123D01*
X412119Y103121D01*
X412076Y103103D01*
X412029Y103095D01*
X411972Y103061D01*
X411912Y103036D01*
X411877Y103005D01*
X411836Y102980D01*
X411795Y102929D01*
X411746Y102885D01*
X411724Y102843D01*
X411695Y102806D01*
X411674Y102744D01*
X411643Y102685D01*
X411635Y102631D01*
X411623Y102594D01*
X411624Y102554D01*
X411616Y102500D01*
X411616Y97500D01*
X411627Y97435D01*
X411629Y97369D01*
X411647Y97326D01*
X411655Y97279D01*
X411689Y97222D01*
X411714Y97162D01*
X411745Y97127D01*
X411770Y97086D01*
X411821Y97045D01*
X411865Y96996D01*
X411907Y96974D01*
X411944Y96945D01*
X412006Y96924D01*
X412065Y96893D01*
X412119Y96885D01*
X412156Y96873D01*
X412196Y96874D01*
X412250Y96866D01*
X414616Y96866D01*
X414616Y88000D01*
X414627Y87935D01*
X414629Y87869D01*
X414647Y87826D01*
X414655Y87779D01*
X414689Y87722D01*
X414714Y87662D01*
X414745Y87627D01*
X414770Y87586D01*
X414821Y87545D01*
X414865Y87496D01*
X414907Y87474D01*
X414944Y87445D01*
X415006Y87424D01*
X415065Y87393D01*
X415119Y87385D01*
X415156Y87373D01*
X415196Y87374D01*
X415250Y87366D01*
X421250Y87366D01*
X421315Y87377D01*
G37*
G36*
X192065Y72377D02*
X192065Y72377D01*
X192131Y72379D01*
X192174Y72397D01*
X192221Y72405D01*
X192278Y72439D01*
X192338Y72464D01*
X192373Y72495D01*
X192414Y72520D01*
X192456Y72571D01*
X192504Y72615D01*
X192526Y72657D01*
X192555Y72694D01*
X192576Y72756D01*
X192607Y72815D01*
X192615Y72869D01*
X192627Y72906D01*
X192626Y72946D01*
X192634Y73000D01*
X192634Y79000D01*
X192623Y79065D01*
X192621Y79131D01*
X192603Y79174D01*
X192595Y79221D01*
X192561Y79278D01*
X192536Y79338D01*
X192505Y79373D01*
X192480Y79414D01*
X192429Y79456D01*
X192385Y79504D01*
X192343Y79526D01*
X192306Y79555D01*
X192244Y79576D01*
X192185Y79607D01*
X192131Y79615D01*
X192094Y79627D01*
X192054Y79626D01*
X192000Y79634D01*
X183134Y79634D01*
X183134Y82000D01*
X183123Y82065D01*
X183121Y82131D01*
X183103Y82174D01*
X183095Y82221D01*
X183061Y82278D01*
X183036Y82338D01*
X183005Y82373D01*
X182980Y82414D01*
X182929Y82456D01*
X182885Y82504D01*
X182843Y82526D01*
X182806Y82555D01*
X182744Y82576D01*
X182685Y82607D01*
X182631Y82615D01*
X182594Y82627D01*
X182554Y82626D01*
X182500Y82634D01*
X177500Y82634D01*
X177435Y82623D01*
X177369Y82621D01*
X177326Y82603D01*
X177279Y82595D01*
X177222Y82561D01*
X177162Y82536D01*
X177127Y82505D01*
X177086Y82480D01*
X177045Y82429D01*
X176996Y82385D01*
X176974Y82343D01*
X176945Y82306D01*
X176924Y82244D01*
X176893Y82185D01*
X176885Y82131D01*
X176873Y82094D01*
X176874Y82054D01*
X176866Y82000D01*
X176866Y79634D01*
X168000Y79634D01*
X167935Y79623D01*
X167869Y79621D01*
X167826Y79603D01*
X167779Y79595D01*
X167722Y79561D01*
X167662Y79536D01*
X167627Y79505D01*
X167586Y79480D01*
X167545Y79429D01*
X167496Y79385D01*
X167474Y79343D01*
X167445Y79306D01*
X167424Y79244D01*
X167393Y79185D01*
X167385Y79131D01*
X167373Y79094D01*
X167374Y79054D01*
X167366Y79000D01*
X167366Y73000D01*
X167377Y72935D01*
X167379Y72869D01*
X167397Y72826D01*
X167405Y72779D01*
X167439Y72722D01*
X167464Y72662D01*
X167495Y72627D01*
X167520Y72586D01*
X167571Y72545D01*
X167615Y72496D01*
X167657Y72474D01*
X167694Y72445D01*
X167756Y72424D01*
X167815Y72393D01*
X167869Y72385D01*
X167906Y72373D01*
X167946Y72374D01*
X168000Y72366D01*
X192000Y72366D01*
X192065Y72377D01*
G37*
G36*
X283815Y72377D02*
X283815Y72377D01*
X283881Y72379D01*
X283924Y72397D01*
X283971Y72405D01*
X284028Y72439D01*
X284088Y72464D01*
X284123Y72495D01*
X284164Y72520D01*
X284206Y72571D01*
X284254Y72615D01*
X284276Y72657D01*
X284305Y72694D01*
X284326Y72756D01*
X284357Y72815D01*
X284365Y72869D01*
X284377Y72906D01*
X284376Y72946D01*
X284384Y73000D01*
X284384Y79000D01*
X284373Y79065D01*
X284371Y79131D01*
X284353Y79174D01*
X284345Y79221D01*
X284311Y79278D01*
X284286Y79338D01*
X284255Y79373D01*
X284230Y79414D01*
X284179Y79456D01*
X284135Y79504D01*
X284093Y79526D01*
X284056Y79555D01*
X283994Y79576D01*
X283935Y79607D01*
X283881Y79615D01*
X283844Y79627D01*
X283804Y79626D01*
X283750Y79634D01*
X274884Y79634D01*
X274884Y82000D01*
X274873Y82065D01*
X274871Y82131D01*
X274853Y82174D01*
X274845Y82221D01*
X274811Y82278D01*
X274786Y82338D01*
X274755Y82373D01*
X274730Y82414D01*
X274679Y82456D01*
X274635Y82504D01*
X274593Y82526D01*
X274556Y82555D01*
X274494Y82576D01*
X274435Y82607D01*
X274381Y82615D01*
X274344Y82627D01*
X274304Y82626D01*
X274250Y82634D01*
X269250Y82634D01*
X269185Y82623D01*
X269119Y82621D01*
X269076Y82603D01*
X269029Y82595D01*
X268972Y82561D01*
X268912Y82536D01*
X268877Y82505D01*
X268836Y82480D01*
X268795Y82429D01*
X268746Y82385D01*
X268724Y82343D01*
X268695Y82306D01*
X268674Y82244D01*
X268643Y82185D01*
X268635Y82131D01*
X268623Y82094D01*
X268624Y82054D01*
X268616Y82000D01*
X268616Y79634D01*
X259750Y79634D01*
X259685Y79623D01*
X259619Y79621D01*
X259576Y79603D01*
X259529Y79595D01*
X259472Y79561D01*
X259412Y79536D01*
X259377Y79505D01*
X259336Y79480D01*
X259295Y79429D01*
X259246Y79385D01*
X259224Y79343D01*
X259195Y79306D01*
X259174Y79244D01*
X259143Y79185D01*
X259135Y79131D01*
X259123Y79094D01*
X259124Y79054D01*
X259116Y79000D01*
X259116Y73000D01*
X259127Y72935D01*
X259129Y72869D01*
X259147Y72826D01*
X259155Y72779D01*
X259189Y72722D01*
X259214Y72662D01*
X259245Y72627D01*
X259270Y72586D01*
X259321Y72545D01*
X259365Y72496D01*
X259407Y72474D01*
X259444Y72445D01*
X259506Y72424D01*
X259565Y72393D01*
X259619Y72385D01*
X259656Y72373D01*
X259696Y72374D01*
X259750Y72366D01*
X283750Y72366D01*
X283815Y72377D01*
G37*
G36*
X237940Y72377D02*
X237940Y72377D01*
X238006Y72379D01*
X238049Y72397D01*
X238096Y72405D01*
X238153Y72439D01*
X238213Y72464D01*
X238248Y72495D01*
X238289Y72520D01*
X238331Y72571D01*
X238379Y72615D01*
X238401Y72657D01*
X238430Y72694D01*
X238451Y72756D01*
X238482Y72815D01*
X238490Y72869D01*
X238502Y72906D01*
X238501Y72946D01*
X238509Y73000D01*
X238509Y79000D01*
X238498Y79065D01*
X238496Y79131D01*
X238478Y79174D01*
X238470Y79221D01*
X238436Y79278D01*
X238411Y79338D01*
X238380Y79373D01*
X238355Y79414D01*
X238304Y79456D01*
X238260Y79504D01*
X238218Y79526D01*
X238181Y79555D01*
X238119Y79576D01*
X238060Y79607D01*
X238006Y79615D01*
X237969Y79627D01*
X237929Y79626D01*
X237875Y79634D01*
X229009Y79634D01*
X229009Y82000D01*
X228998Y82065D01*
X228996Y82131D01*
X228978Y82174D01*
X228970Y82221D01*
X228936Y82278D01*
X228911Y82338D01*
X228880Y82373D01*
X228855Y82414D01*
X228804Y82456D01*
X228760Y82504D01*
X228718Y82526D01*
X228681Y82555D01*
X228619Y82576D01*
X228560Y82607D01*
X228506Y82615D01*
X228469Y82627D01*
X228429Y82626D01*
X228375Y82634D01*
X223375Y82634D01*
X223310Y82623D01*
X223244Y82621D01*
X223201Y82603D01*
X223154Y82595D01*
X223097Y82561D01*
X223037Y82536D01*
X223002Y82505D01*
X222961Y82480D01*
X222920Y82429D01*
X222871Y82385D01*
X222849Y82343D01*
X222820Y82306D01*
X222799Y82244D01*
X222768Y82185D01*
X222760Y82131D01*
X222748Y82094D01*
X222749Y82054D01*
X222741Y82000D01*
X222741Y79634D01*
X213875Y79634D01*
X213810Y79623D01*
X213744Y79621D01*
X213701Y79603D01*
X213654Y79595D01*
X213597Y79561D01*
X213537Y79536D01*
X213502Y79505D01*
X213461Y79480D01*
X213420Y79429D01*
X213371Y79385D01*
X213349Y79343D01*
X213320Y79306D01*
X213299Y79244D01*
X213268Y79185D01*
X213260Y79131D01*
X213248Y79094D01*
X213249Y79054D01*
X213241Y79000D01*
X213241Y73000D01*
X213252Y72935D01*
X213254Y72869D01*
X213272Y72826D01*
X213280Y72779D01*
X213314Y72722D01*
X213339Y72662D01*
X213370Y72627D01*
X213395Y72586D01*
X213446Y72545D01*
X213490Y72496D01*
X213532Y72474D01*
X213569Y72445D01*
X213631Y72424D01*
X213690Y72393D01*
X213744Y72385D01*
X213781Y72373D01*
X213821Y72374D01*
X213875Y72366D01*
X237875Y72366D01*
X237940Y72377D01*
G37*
D10*
X303700Y182700D03*
X303700Y163700D03*
X324700Y173200D03*
D11*
X144900Y69760D03*
X125900Y69760D03*
X56900Y251750D03*
X75900Y251750D03*
X271600Y178300D03*
X252600Y178300D03*
X389700Y100000D03*
X370700Y100000D03*
X298500Y73700D03*
X317500Y73700D03*
X145480Y91720D03*
X126480Y91720D03*
D12*
X180000Y249840D03*
X180000Y230840D03*
X225875Y249840D03*
X225875Y230840D03*
X271750Y249840D03*
X271750Y230840D03*
D11*
X58900Y100000D03*
X77900Y100000D03*
X389100Y251750D03*
X370100Y251750D03*
D13*
X198900Y213700D03*
X198900Y188300D03*
X198900Y162900D03*
X198900Y137500D03*
X122700Y137500D03*
X122700Y162900D03*
X122700Y188300D03*
X122700Y213700D03*
D14*
X225875Y59500D03*
D15*
X225875Y58500D03*
D16*
X225875Y76000D03*
D14*
X271750Y292250D03*
D15*
X271750Y293250D03*
D16*
X271750Y275750D03*
D17*
X89700Y218000D03*
X89700Y188000D03*
X89700Y158000D03*
X89700Y128000D03*
D14*
X225875Y292250D03*
D15*
X225875Y293250D03*
D16*
X225875Y275750D03*
D14*
X180000Y292250D03*
D15*
X180000Y293250D03*
D16*
X180000Y275750D03*
D18*
X434750Y251750D03*
D19*
X435750Y251750D03*
D20*
X418250Y251750D03*
D18*
X17000Y100000D03*
D19*
X16000Y100000D03*
D20*
X33500Y100000D03*
D18*
X17000Y251750D03*
D19*
X16000Y251750D03*
D20*
X33500Y251750D03*
D18*
X434750Y100000D03*
D19*
X435750Y100000D03*
D20*
X418250Y100000D03*
D14*
X271750Y59500D03*
D15*
X271750Y58500D03*
D16*
X271750Y76000D03*
D14*
X180000Y59500D03*
D15*
X180000Y58500D03*
D16*
X180000Y76000D03*
D21*
X227550Y103700D03*
X252950Y103700D03*
X278350Y103700D03*
X303750Y103700D03*
X329150Y103700D03*
D22*
X95780Y121920D02*
X89700Y128000D01*
X183320Y121920D02*
X198900Y137500D01*
X183320Y121920D02*
X95780Y121920D01*
X252950Y103700D02*
X264160Y114910D01*
X264160Y129540D01*
X298320Y163700D01*
X303700Y163700D01*
X267140Y114910D02*
X278350Y103700D01*
X267140Y114910D02*
X264160Y114910D01*
X256200Y137500D02*
X198900Y137500D01*
X256200Y137500D02*
X264160Y129540D01*
X126480Y72880D02*
X125900Y69760D01*
D23*
X248920Y231140D03*
D22*
X271450Y231140D01*
X271750Y230840D01*
X248920Y231140D02*
X226175Y231140D01*
X225875Y230840D02*
X180000Y230840D01*
X225875Y230840D02*
X226175Y231140D01*
X271750Y230840D02*
X272050Y231140D01*
X349490Y231140D02*
X370100Y251750D01*
X349490Y231140D02*
X272050Y231140D01*
X180000Y230840D02*
X155240Y230840D01*
X137160Y248920D01*
X137158Y249023D01*
X137152Y249127D01*
X137143Y249230D01*
X137130Y249332D01*
X137113Y249434D01*
X137092Y249535D01*
X137068Y249636D01*
X137040Y249735D01*
X137008Y249834D01*
X136973Y249931D01*
X136935Y250027D01*
X136892Y250121D01*
X136847Y250214D01*
X136798Y250305D01*
X136746Y250394D01*
X136690Y250482D01*
X136632Y250567D01*
X136570Y250650D01*
X136505Y250730D01*
X136438Y250809D01*
X136367Y250884D01*
X136294Y250957D01*
X136219Y251028D01*
X136140Y251095D01*
X136060Y251160D01*
X135977Y251222D01*
X135892Y251280D01*
X135804Y251336D01*
X135715Y251388D01*
X135624Y251437D01*
X135531Y251482D01*
X135437Y251525D01*
X135341Y251563D01*
X135244Y251598D01*
X135145Y251630D01*
X135046Y251658D01*
X134945Y251682D01*
X134844Y251703D01*
X134742Y251720D01*
X134640Y251733D01*
X134537Y251742D01*
X134433Y251748D01*
X134330Y251750D01*
X75900Y251750D01*
D24*
X122700Y213700D02*
X138100Y213700D01*
X155240Y230840D01*
D23*
X347980Y78740D03*
D24*
X369240Y100000D01*
X370700Y100000D01*
X347980Y78740D02*
X342940Y73700D01*
X317500Y73700D01*
X227550Y103700D02*
X222030Y106680D01*
X109220Y106680D02*
X102540Y100000D01*
X77900Y100000D01*
X127000Y106680D02*
X222030Y106680D01*
X127000Y106680D02*
X109220Y106680D01*
X126480Y106160D02*
X127000Y106680D01*
X125900Y93680D02*
X125900Y69760D01*
X126480Y91720D02*
X125900Y93680D01*
X126480Y91720D02*
X126480Y106160D01*
D25*
X110200Y137500D02*
X89700Y158000D01*
X110200Y137500D02*
X122700Y137500D01*
X122400Y188000D02*
X89700Y188000D01*
X122400Y188000D02*
X122700Y188300D01*
X296200Y76000D02*
X298500Y73700D01*
X296200Y76000D02*
X271750Y76000D01*
X389700Y100000D02*
X418250Y100000D01*
X158760Y76000D02*
X144900Y69760D01*
X158760Y76000D02*
X180000Y76000D01*
X225875Y249840D02*
X225875Y275750D01*
X180000Y275750D02*
X180000Y249840D01*
X145480Y91720D02*
X218160Y91720D01*
X226060Y86360D01*
X225875Y86175D01*
X225875Y76000D01*
X389100Y251750D02*
X418250Y251750D01*
X58900Y100000D02*
X33500Y100000D01*
X271750Y249840D02*
X271750Y275750D01*
X56900Y251750D02*
X33500Y251750D01*
X271600Y178300D02*
X299300Y178300D01*
X303700Y182700D01*
X214300Y178300D02*
X198900Y162900D01*
X214300Y178300D02*
X252600Y178300D01*
D24*
X16000Y251750D02*
X16000Y100000D01*
X16000Y251750D02*
X16000Y264920D01*
X25400Y274320D01*
X73660Y274320D01*
X92590Y293250D02*
X180000Y293250D01*
X92590Y293250D02*
X73660Y274320D01*
X180000Y293250D02*
X225875Y293250D01*
X271750Y293250D01*
X364610Y293250D01*
X381000Y276860D01*
X435750Y270370D02*
X435750Y251750D01*
X435750Y270370D02*
X429260Y276860D01*
X381000Y276860D01*
X435750Y155900D02*
X435750Y100000D01*
X435750Y155900D02*
X435750Y190500D01*
X435750Y251750D01*
X418450Y173200D02*
X324700Y173200D01*
X418450Y173200D02*
X435750Y190500D01*
X418450Y173200D02*
X435750Y155900D01*
X373460Y58500D02*
X271750Y58500D01*
X373460Y58500D02*
X391160Y76200D01*
X435750Y82690D02*
X435750Y100000D01*
X435750Y82690D02*
X429260Y76200D01*
X391160Y76200D01*
X271750Y58500D02*
X225875Y58500D01*
X180000Y58500D01*
X172800Y58500D01*
X167640Y53340D01*
X91440Y53340D01*
X71120Y73660D01*
X16000Y83060D02*
X16000Y100000D01*
X16000Y83060D02*
X25400Y73660D01*
X71120Y73660D01*
M02*
